<svg width="21" height="15" viewBox="0 0 21 15" fill="none" xmlns="http://www.w3.org/2000/svg">
<path d="M13.0313 14.6041C12.8333 14.6041 12.6354 14.5312 12.4792 14.375C12.3339 14.228 12.2524 14.0296 12.2524 13.8229C12.2524 13.6162 12.3339 13.4178 12.4792 13.2708L18.25 7.49997L12.4792 1.72914C12.3339 1.58212 12.2524 1.38375 12.2524 1.17705C12.2524 0.970354 12.3339 0.771988 12.4792 0.624969C12.7813 0.322886 13.2813 0.322886 13.5833 0.624969L19.9063 6.94789C20.2083 7.24997 20.2083 7.74997 19.9063 8.05205L13.5833 14.375C13.4271 14.5312 13.2292 14.6041 13.0313 14.6041Z" fill="white"/>
<path d="M19.1771 8.28125H1.64583C1.21874 8.28125 0.864578 7.92708 0.864578 7.5C0.864578 7.07292 1.21874 6.71875 1.64583 6.71875H19.1771C19.6042 6.71875 19.9583 7.07292 19.9583 7.5C19.9583 7.92708 19.6042 8.28125 19.1771 8.28125Z" fill="white"/>
</svg>
