<svg width="148" height="145" viewBox="0 0 148 145" fill="none" xmlns="http://www.w3.org/2000/svg">
<path opacity="0.35" d="M74 12.0833C39.9415 12.0833 12.3333 39.1319 12.3333 72.5C12.3333 82.1183 14.689 91.1748 18.7652 99.2465L12.5677 123.528C11.1555 129.056 16.2677 134.071 21.9163 132.687L46.7002 126.615C54.9388 130.609 64.1827 132.917 74 132.917C108.058 132.917 135.667 105.868 135.667 72.5C135.667 39.1319 108.058 12.0833 74 12.0833Z" fill="#444F83"/>
<path d="M73.2785 84.4202H73.2415C69.1098 84.4202 65.9217 80.765 66.6308 76.7775C68.7892 64.6156 78.4523 64.1927 78.4523 56.6406C78.4523 54.5442 78.0823 49.8498 72.927 49.8498C70.1397 49.8498 68.4993 51.5958 67.5435 53.4567C66.2547 55.976 63.2823 57.2146 60.4518 56.7252C56.1598 55.976 53.5267 51.469 55.3458 47.5902C57.9482 42.05 63.2762 36.25 73.8273 36.25C90.946 36.25 93.24 49.3846 93.24 55.5592C93.24 70.1558 82.1462 70.6996 79.846 79.1096C79.0135 82.1425 76.4852 84.4202 73.2785 84.4202ZM82.1708 99.8869C82.1708 102.376 81.3877 104.479 79.8152 106.188C78.2365 107.892 76.1707 108.75 73.63 108.75C71.077 108.75 69.0173 107.892 67.4448 106.188C65.8723 104.479 65.0768 102.376 65.0768 99.8869C65.0768 97.4521 65.8723 95.3556 67.4448 93.5733C69.0173 91.8031 71.077 90.921 73.63 90.921C76.1707 90.921 78.2365 91.8031 79.8152 93.5733C81.3877 95.3556 82.1708 97.4581 82.1708 99.8869Z" fill="#107EEB"/>
</svg>
