<svg width="180" height="180" viewBox="0 0 180 180" fill="none" xmlns="http://www.w3.org/2000/svg">
<path opacity="0.35" d="M45 127.5V37.5C45 25.0725 55.0725 15 67.5 15H127.5C139.928 15 150 25.0725 150 37.5V127.5C150 139.927 139.928 150 127.5 150H67.5C55.0725 150 45 139.927 45 127.5Z" fill="#1F2541" fill-opacity="0.22"/>
<path d="M67.5 150C55.0725 150 45 139.928 45 127.5V37.5C36.7125 37.5 30 44.2125 30 52.5V142.5C30 154.928 40.0725 165 52.5 165H112.5C120.787 165 127.5 158.288 127.5 150H67.5Z" fill="#1F2541"/>
<path d="M96.6225 97.2975H96.5775C91.5525 97.2975 87.675 92.76 88.5375 87.81C91.1625 72.7125 102.915 72.1875 102.915 62.8125C102.915 60.21 102.465 54.3825 96.195 54.3825C92.805 54.3825 90.81 56.55 89.6475 58.86C88.08 61.9875 84.465 63.525 81.0225 62.9175C75.8025 61.9875 72.6 56.3925 74.8125 51.5775C77.9775 44.7 84.4575 37.5 97.29 37.5C118.11 37.5 120.9 53.805 120.9 61.47C120.9 79.59 107.408 80.265 104.61 90.705C103.598 94.47 100.523 97.2975 96.6225 97.2975ZM107.438 116.497C107.438 119.588 106.485 122.198 104.573 124.32C102.653 126.435 100.14 127.5 97.05 127.5C93.945 127.5 91.44 126.435 89.5275 124.32C87.615 122.198 86.6475 119.588 86.6475 116.497C86.6475 113.475 87.615 110.872 89.5275 108.66C91.44 106.463 93.945 105.368 97.05 105.368C100.14 105.368 102.653 106.463 104.573 108.66C106.485 110.872 107.438 113.482 107.438 116.497Z" fill="#1F2541"/>
</svg>
