<svg width="35" height="35" viewBox="0 0 35 35" fill="none" xmlns="http://www.w3.org/2000/svg">
<path opacity="0.35" d="M26.25 4.375H8.75C6.33354 4.375 4.375 6.33354 4.375 8.75V26.25C4.375 28.6665 6.33354 30.625 8.75 30.625H26.25C28.6665 30.625 30.625 28.6665 30.625 26.25V8.75C30.625 6.33354 28.6665 4.375 26.25 4.375Z" fill="#FF1E60" fill-opacity="0.3"/>
<path d="M21.6008 11.3531L11.3531 21.6009C10.7931 22.1609 10.7931 23.0709 11.3531 23.6309L11.3692 23.6469C11.9292 24.2069 12.8392 24.2069 13.3992 23.6469L23.6469 13.3992C24.2069 12.8392 24.2069 11.9292 23.6469 11.3692L23.6308 11.3531C23.0708 10.7931 22.1608 10.7931 21.6008 11.3531Z" fill="#FF1E60"/>
<path d="M11.3531 13.3992L21.6008 23.6469C22.1608 24.2069 23.0708 24.2069 23.6308 23.6469L23.6469 23.6309C24.2069 23.0709 24.2069 22.1609 23.6469 21.6009L13.3992 11.3531C12.8392 10.7931 11.9292 10.7931 11.3692 11.3531L11.3531 11.3692C10.7931 11.9292 10.7931 12.8392 11.3531 13.3992Z" fill="#FF1E60"/>
</svg>
