<svg width="194" height="172" viewBox="0 0 194 172" fill="none" xmlns="http://www.w3.org/2000/svg">
<path d="M60.7552 144.058C60.7525 144.288 60.7951 144.516 60.8805 144.73C60.9568 144.917 61.0726 145.086 61.2201 145.226C61.3643 145.361 61.5344 145.465 61.7201 145.533C61.9144 145.604 62.1198 145.639 62.3267 145.638C62.5357 145.64 62.7433 145.604 62.9398 145.533C63.1255 145.465 63.2954 145.361 63.4391 145.226C63.5855 145.086 63.7001 144.917 63.7751 144.73C63.8591 144.516 63.9009 144.288 63.8981 144.058V135.445C63.9028 135.216 63.8701 134.987 63.8011 134.769C63.7476 134.601 63.6549 134.449 63.5306 134.324C63.4138 134.211 63.2721 134.127 63.117 134.079C62.9469 134.027 62.7696 134.001 62.5916 134.004C62.4594 134.003 62.3274 134.016 62.1978 134.042C62.0761 134.067 61.9577 134.106 61.8448 134.157C61.7287 134.21 61.6182 134.275 61.515 134.35C61.4007 134.434 61.2925 134.525 61.1911 134.624L59.0283 136.762C58.9385 136.851 58.8572 136.948 58.7857 137.052C58.7187 137.149 58.6619 137.253 58.616 137.362C58.5716 137.468 58.5382 137.577 58.5163 137.69C58.4944 137.803 58.4835 137.917 58.4837 138.032C58.4832 138.239 58.5205 138.445 58.5936 138.639C58.6638 138.824 58.7678 138.994 58.9005 139.142C59.0301 139.286 59.1877 139.403 59.3639 139.485C59.5465 139.569 59.7455 139.613 59.9469 139.612C60.0169 139.612 60.0869 139.607 60.1564 139.598C60.2261 139.588 60.2951 139.574 60.363 139.556C60.4313 139.538 60.4983 139.515 60.5638 139.488C60.6297 139.461 60.6938 139.43 60.7558 139.395L60.7552 144.058ZM69.219 144.058C69.2163 144.288 69.2589 144.516 69.3443 144.73C69.4206 144.917 69.5364 145.086 69.6839 145.226C69.8281 145.361 69.9982 145.465 70.1839 145.533C70.3782 145.604 70.5836 145.639 70.7905 145.638C70.9995 145.64 71.2071 145.604 71.4036 145.533C71.5893 145.465 71.7592 145.361 71.9029 145.226C72.0493 145.086 72.1639 144.917 72.2389 144.73C72.3229 144.516 72.3647 144.288 72.3619 144.058V135.445C72.3666 135.216 72.3339 134.987 72.2649 134.769C72.2113 134.601 72.1186 134.449 71.9943 134.324C71.8777 134.211 71.7363 134.127 71.5814 134.079C71.4113 134.027 71.234 134.001 71.056 134.004C70.9238 134.003 70.7918 134.016 70.6622 134.042C70.5406 134.067 70.4222 134.106 70.3092 134.157C70.1931 134.21 70.0826 134.275 69.9794 134.35C69.8651 134.434 69.7569 134.525 69.6555 134.624L67.4932 136.762C67.4034 136.85 67.3221 136.948 67.2506 137.052C67.1836 137.149 67.1268 137.253 67.0809 137.362C67.0365 137.467 67.0031 137.577 66.9812 137.69C66.9593 137.802 66.9484 137.917 66.9486 138.032C66.9481 138.239 66.9854 138.444 67.0585 138.638C67.1282 138.823 67.2317 138.994 67.3639 139.141C67.4935 139.286 67.6511 139.403 67.8273 139.485C68.01 139.569 68.209 139.613 68.4103 139.612C68.4804 139.612 68.5504 139.607 68.6198 139.598C68.6895 139.588 68.7585 139.574 68.8264 139.556C68.8947 139.538 68.9618 139.515 69.0272 139.488C69.0931 139.461 69.1572 139.43 69.2193 139.395L69.219 144.058ZM77.6828 144.058C77.6801 144.288 77.7227 144.516 77.8081 144.73C77.8844 144.917 78.0002 145.086 78.1477 145.226C78.2919 145.361 78.462 145.465 78.6477 145.533C78.842 145.604 79.0474 145.639 79.2543 145.638C79.4633 145.64 79.6709 145.604 79.8674 145.533C80.0531 145.465 80.223 145.361 80.3667 145.226C80.5131 145.086 80.6277 144.917 80.7027 144.73C80.7867 144.516 80.8285 144.288 80.8257 144.058V135.445C80.8304 135.216 80.7977 134.987 80.7287 134.769C80.6751 134.601 80.5824 134.449 80.4581 134.324C80.3413 134.211 80.1997 134.127 80.0446 134.079C79.8745 134.027 79.6972 134.001 79.5192 134.004C79.387 134.003 79.255 134.016 79.1254 134.042C79.0037 134.067 78.8853 134.106 78.7724 134.157C78.6563 134.211 78.5458 134.275 78.4426 134.35C78.3283 134.434 78.2201 134.525 78.1187 134.624L75.9564 136.762C75.8666 136.851 75.7853 136.948 75.7138 137.052C75.6468 137.149 75.59 137.253 75.5441 137.362C75.4997 137.468 75.4663 137.577 75.4444 137.69C75.4225 137.802 75.4116 137.917 75.4118 138.032C75.4113 138.239 75.4486 138.444 75.5217 138.638C75.5914 138.823 75.6949 138.994 75.8271 139.142C75.9567 139.286 76.1143 139.403 76.2905 139.485C76.4732 139.569 76.6722 139.613 76.8735 139.612C76.9436 139.612 77.0136 139.607 77.083 139.598C77.1527 139.588 77.2217 139.574 77.2896 139.556C77.3579 139.538 77.425 139.515 77.4904 139.488C77.5563 139.461 77.6204 139.43 77.6825 139.395L77.6828 144.058ZM90.4096 141.13C90.4134 141.344 90.3782 141.557 90.3058 141.758C90.2435 141.927 90.1426 142.08 90.0109 142.203C89.8783 142.324 89.7209 142.414 89.5497 142.468C89.3547 142.529 89.1513 142.558 88.947 142.555C88.7487 142.558 88.5512 142.528 88.3624 142.468C88.1941 142.413 88.0399 142.323 87.9103 142.203C87.7802 142.079 87.6804 141.927 87.6189 141.758C87.5468 141.557 87.5118 141.344 87.5155 141.13V138.497C87.5121 138.285 87.5471 138.075 87.6189 137.875C87.6808 137.707 87.7805 137.554 87.9103 137.43C88.0397 137.309 88.1939 137.217 88.3624 137.161C88.5509 137.099 88.7485 137.069 88.947 137.071C89.1515 137.069 89.355 137.099 89.5497 137.161C89.7211 137.216 89.8785 137.308 90.0109 137.43C90.1422 137.554 90.2431 137.706 90.3058 137.875C90.378 138.074 90.4132 138.285 90.4096 138.497V141.13ZM93.5835 138.977C93.596 138.234 93.4949 137.492 93.2837 136.779C93.1102 136.195 92.8079 135.658 92.3991 135.205C91.9995 134.779 91.5031 134.454 90.9514 134.259C89.6594 133.837 88.2659 133.837 86.9738 134.259C86.4222 134.454 85.9257 134.779 85.5261 135.205C85.1173 135.658 84.8151 136.195 84.6415 136.779C84.4304 137.492 84.3293 138.234 84.3417 138.977V140.65C84.3292 141.397 84.4303 142.141 84.6415 142.857C84.8148 143.442 85.117 143.982 85.5261 144.436C85.9254 144.863 86.4219 145.188 86.9738 145.384C88.2658 145.806 89.6594 145.806 90.9514 145.384C91.5033 145.188 91.9998 144.863 92.3991 144.436C92.8082 143.982 93.1105 143.442 93.2837 142.857C93.495 142.141 93.596 141.397 93.5835 140.65V138.977ZM98.9045 144.058C98.9017 144.288 98.9443 144.516 99.0297 144.73C99.1061 144.918 99.2219 145.087 99.3693 145.226C99.5135 145.361 99.6836 145.465 99.8693 145.533C100.064 145.604 100.269 145.64 100.476 145.639C100.685 145.64 100.893 145.604 101.089 145.533C101.275 145.466 101.445 145.361 101.588 145.226C101.735 145.087 101.849 144.917 101.924 144.73C102.008 144.516 102.05 144.288 102.047 144.058V135.445C102.052 135.216 102.019 134.987 101.95 134.769C101.897 134.601 101.804 134.449 101.68 134.324C101.563 134.211 101.421 134.127 101.266 134.079C101.096 134.027 100.919 134.001 100.741 134.004C100.609 134.003 100.477 134.016 100.347 134.042C100.225 134.067 100.107 134.106 99.9941 134.157C99.8779 134.211 99.7675 134.275 99.6642 134.35C99.5499 134.434 99.4417 134.525 99.3403 134.624L97.178 136.762C97.0882 136.851 97.007 136.948 96.9354 137.052C96.8684 137.149 96.8116 137.253 96.7657 137.362C96.7213 137.468 96.6879 137.577 96.666 137.69C96.6441 137.802 96.6332 137.917 96.6334 138.032C96.6329 138.239 96.6702 138.444 96.7433 138.638C96.813 138.823 96.9166 138.994 97.0488 139.142C97.1783 139.286 97.3359 139.403 97.5121 139.485C97.6948 139.569 97.8938 139.613 98.0951 139.612C98.1652 139.612 98.2352 139.607 98.3046 139.598C98.3743 139.588 98.4433 139.574 98.5112 139.556C98.5795 139.538 98.6466 139.515 98.712 139.488C98.7779 139.461 98.842 139.43 98.9041 139.395L98.9045 144.058ZM111.631 141.131C111.635 141.344 111.6 141.557 111.527 141.758C111.465 141.928 111.364 142.08 111.232 142.203C111.1 142.324 110.943 142.414 110.771 142.468C110.576 142.529 110.373 142.558 110.169 142.556C109.97 142.558 109.773 142.529 109.584 142.468C109.416 142.414 109.261 142.323 109.132 142.203C109.002 142.079 108.902 141.927 108.84 141.758C108.768 141.557 108.733 141.344 108.737 141.131V138.497C108.734 138.285 108.769 138.075 108.84 137.875C108.902 137.707 109.002 137.554 109.132 137.43C109.261 137.309 109.416 137.217 109.584 137.161C109.773 137.099 109.97 137.069 110.169 137.071C110.373 137.069 110.577 137.099 110.771 137.161C110.943 137.216 111.1 137.308 111.232 137.43C111.364 137.554 111.465 137.706 111.527 137.875C111.6 138.074 111.635 138.285 111.631 138.497V141.131ZM114.805 138.977C114.818 138.234 114.717 137.493 114.505 136.779C114.332 136.196 114.03 135.658 113.621 135.205C113.221 134.779 112.725 134.455 112.173 134.259C110.881 133.837 109.488 133.837 108.195 134.259C107.644 134.455 107.147 134.779 106.748 135.205C106.339 135.658 106.037 136.196 105.863 136.779C105.652 137.493 105.551 138.234 105.563 138.977V140.65C105.551 141.397 105.652 142.141 105.863 142.857C106.036 143.442 106.339 143.982 106.748 144.436C107.147 144.863 107.644 145.188 108.195 145.384C109.487 145.806 110.881 145.806 112.173 145.384C112.725 145.188 113.221 144.863 113.621 144.436C114.03 143.982 114.332 143.442 114.505 142.857C114.717 142.141 114.818 141.397 114.805 140.65V138.977ZM120.126 144.059C120.123 144.289 120.166 144.517 120.251 144.73C120.328 144.918 120.443 145.087 120.591 145.226C120.735 145.361 120.905 145.466 121.091 145.533C121.285 145.604 121.491 145.64 121.697 145.639C121.907 145.64 122.114 145.604 122.311 145.533C122.496 145.466 122.666 145.361 122.81 145.226C122.956 145.087 123.071 144.918 123.146 144.73C123.23 144.516 123.272 144.288 123.269 144.059V135.445C123.274 135.216 123.241 134.987 123.172 134.769C123.118 134.601 123.026 134.449 122.901 134.324C122.785 134.211 122.643 134.127 122.488 134.079C122.318 134.027 122.141 134.001 121.963 134.004C121.83 134.003 121.699 134.016 121.569 134.042C121.447 134.067 121.329 134.106 121.216 134.157C121.1 134.21 120.989 134.275 120.886 134.35C120.772 134.434 120.664 134.525 120.562 134.624L118.4 136.762C118.31 136.85 118.229 136.948 118.157 137.052C118.09 137.149 118.033 137.253 117.988 137.362C117.943 137.467 117.91 137.577 117.888 137.69C117.866 137.802 117.855 137.917 117.855 138.032C117.855 138.239 117.892 138.444 117.965 138.638C118.035 138.823 118.138 138.994 118.271 139.141C118.4 139.286 118.558 139.403 118.734 139.485C118.917 139.569 119.116 139.613 119.317 139.612C119.387 139.612 119.457 139.607 119.526 139.598C119.596 139.588 119.665 139.574 119.733 139.556C119.801 139.538 119.868 139.515 119.934 139.488C120 139.461 120.064 139.43 120.126 139.395L120.126 144.059ZM132.853 141.131C132.857 141.345 132.821 141.557 132.749 141.759C132.687 141.928 132.586 142.08 132.454 142.204C132.322 142.324 132.164 142.415 131.993 142.468C131.798 142.529 131.595 142.559 131.39 142.556C131.192 142.558 130.994 142.529 130.806 142.468C130.637 142.414 130.483 142.323 130.354 142.204C130.223 142.079 130.124 141.927 130.062 141.758C129.99 141.557 129.955 141.344 129.959 141.13V138.497C129.956 138.285 129.991 138.075 130.062 137.875C130.124 137.707 130.224 137.554 130.354 137.43C130.483 137.309 130.637 137.217 130.806 137.161C130.994 137.099 131.192 137.069 131.391 137.071C131.595 137.069 131.798 137.099 131.993 137.161C132.165 137.216 132.322 137.308 132.454 137.43C132.586 137.554 132.687 137.706 132.749 137.875C132.821 138.074 132.857 138.285 132.853 138.497L132.853 141.131ZM136.027 138.978C136.039 138.234 135.938 137.493 135.727 136.779C135.553 136.196 135.251 135.658 134.842 135.206C134.443 134.779 133.946 134.455 133.395 134.259C132.103 133.838 130.709 133.838 129.417 134.259C128.865 134.455 128.369 134.779 127.969 135.206C127.561 135.658 127.258 136.196 127.085 136.779C126.874 137.493 126.773 138.234 126.785 138.978V140.65C126.773 141.397 126.874 142.141 127.085 142.857C127.258 143.442 127.56 143.982 127.969 144.436C128.369 144.863 128.865 145.188 129.417 145.384C130.709 145.806 132.103 145.806 133.395 145.384C133.947 145.188 134.443 144.863 134.842 144.436C135.251 143.982 135.554 143.442 135.727 142.857C135.938 142.141 136.039 141.397 136.027 140.65V138.978Z" fill="#1F2541"/>
<path d="M157.35 172H109.217C108.482 172.001 107.754 171.855 107.077 171.57C106.424 171.295 105.83 170.897 105.33 170.397C104.828 169.898 104.428 169.307 104.152 168.657C103.865 167.983 103.718 167.258 103.719 166.526V159.106H157.839C170.638 159.106 181.05 148.738 181.05 135.994V20.1924C181.048 18.2574 180.275 16.4022 178.901 15.034C177.527 13.6657 175.664 12.8961 173.72 12.8939H139.88C127.081 12.8939 116.669 23.2618 116.669 36.0057V76.8689C115.45 77.5258 114.253 78.2493 113.11 79.0182C110.846 80.5423 108.733 82.2781 106.8 84.2021C105.713 85.2857 104.684 86.4265 103.719 87.6196V87.6106C100.863 91.1416 98.594 95.1063 97 99.3535C95.406 95.1063 93.1374 91.1416 90.2809 87.6106V87.6196C89.3159 86.4265 88.2874 85.2857 87.1998 84.2021C85.2671 82.2781 83.1541 80.5422 80.8898 79.0183C79.7458 78.2487 78.5485 77.5255 77.3312 76.8689V36.0057C77.3312 23.2618 66.9186 12.8939 54.1196 12.8939H20.2796C18.3362 12.8961 16.4731 13.6658 15.099 15.034C13.7248 16.4023 12.9518 18.2574 12.9496 20.1924V135.994C12.9496 148.738 23.3623 159.106 36.1612 159.106H90.2809V166.526C90.2823 167.258 90.1353 167.983 89.8487 168.657C89.5727 169.307 89.1727 169.898 88.6707 170.396C88.1701 170.896 87.5768 171.294 86.9237 171.569C86.2467 171.855 85.5187 172.001 84.7834 172H36.6499C34.169 172 31.6945 171.752 29.2637 171.258C26.9056 170.777 24.6012 170.065 22.384 169.132C20.2047 168.213 18.1199 167.086 16.1587 165.767C14.2124 164.457 12.3961 162.965 10.7345 161.311C9.07359 159.657 7.57508 157.848 6.25932 155.91C4.93459 153.957 3.80291 151.882 2.88018 149.712C1.94307 147.504 1.22772 145.209 0.7446 142.862C0.24901 140.441 -0.000446602 137.978 6.00201e-07 135.508V18.2461C-0.000285193 17.011 0.124478 15.7791 0.372375 14.5689C0.613957 13.3949 0.971649 12.2477 1.44023 11.1439C1.90151 10.0589 2.46729 9.02093 3.12965 8.04459C3.78755 7.07557 4.53691 6.17131 5.3675 5.34416C6.19817 4.51712 7.10632 3.77103 8.07959 3.11606C9.06014 2.45653 10.1026 1.89314 11.1923 1.43378C12.3008 0.967183 13.453 0.611029 14.632 0.370521C15.8473 0.123819 17.0846 -0.000316784 18.3249 8.56951e-07H53.631C56.1119 -0.000337859 58.5865 0.248251 61.0173 0.742006C63.3754 1.22295 65.6798 1.93523 67.8969 2.86842C70.0763 3.7871 72.1612 4.91384 74.1224 6.23287C76.0688 7.54296 77.8851 9.03509 79.5466 10.6889C81.2076 12.3433 82.7062 14.1518 84.0219 16.0898C85.3466 18.0426 86.4783 20.1186 87.4009 22.2887C88.3382 24.4962 89.0535 26.7907 89.5365 29.1386C90.0321 31.5586 90.2815 34.0223 90.2809 36.4922V69.0919C92.6686 70.839 94.9152 72.7698 97 74.8665C99.0848 72.7698 101.331 70.8391 103.719 69.0919V36.4922C103.719 34.022 103.968 31.5581 104.464 29.1378C104.947 26.7899 105.663 24.4954 106.6 22.2879C107.523 20.1179 108.654 18.0419 109.979 16.0891C111.295 14.1511 112.793 12.3426 114.454 10.6882C116.116 9.03436 117.932 7.54228 119.878 6.23226C121.84 4.91314 123.924 3.78634 126.104 2.86768C128.321 1.93446 130.625 1.22219 132.984 0.741279C135.414 0.247814 137.888 -0.000532405 140.369 8.56951e-07H175.675C176.915 -0.000251497 178.153 0.12396 179.368 0.370759C180.547 0.611152 181.699 0.96731 182.808 1.43402C183.898 1.89324 184.94 2.45655 185.921 3.11606C186.894 3.77116 187.802 4.51724 188.633 5.34416C189.463 6.17135 190.212 7.0756 190.87 8.04459C191.533 9.02093 192.099 10.0589 192.56 11.1439C193.028 12.2477 193.386 13.3949 193.628 14.5689C193.876 15.7791 194 17.011 194 18.2461V135.508C194.001 137.978 193.751 140.442 193.256 142.862C192.772 145.21 192.057 147.505 191.12 149.712C190.197 151.882 189.066 153.958 187.741 155.911C186.425 157.849 184.927 159.657 183.266 161.312C181.604 162.965 179.788 164.458 177.841 165.768C175.88 167.087 173.795 168.214 171.616 169.132C169.399 170.065 167.094 170.778 164.736 171.259C162.306 171.752 159.831 172.001 157.35 172ZM49.966 147.307H38.4824C37.49 147.307 36.5002 147.208 35.5279 147.01C34.5847 146.818 33.663 146.533 32.7761 146.16C31.9043 145.792 31.0703 145.342 30.2859 144.814C29.5073 144.29 28.7808 143.693 28.1162 143.032C27.4519 142.37 26.8525 141.646 26.3261 140.871C25.7962 140.09 25.3436 139.26 24.9746 138.392C24.5995 137.509 24.3133 136.591 24.1201 135.652C23.922 134.684 23.8222 133.698 23.8224 132.71V114.221C23.8219 111.981 24.048 109.747 24.4974 107.553C24.9354 105.424 25.584 103.343 26.4337 101.342C27.2704 99.3745 28.2964 97.4924 29.4974 95.722C30.6903 93.965 32.049 92.3253 33.5549 90.8254C35.0613 89.3259 36.7081 87.973 38.4727 86.7852C40.2508 85.5893 42.141 84.5677 44.1168 83.7347C46.1269 82.8886 48.2163 82.2428 50.3542 81.8068C52.5583 81.3592 54.8022 81.1339 57.0516 81.1344C59.3009 81.1339 61.5445 81.3591 63.7484 81.8067C65.8864 82.2427 67.9758 82.8885 69.986 83.7346C71.9618 84.5676 73.852 85.5892 75.6301 86.7851C77.3947 87.9729 79.0415 89.3258 80.5479 90.8252C82.0538 92.3252 83.4124 93.9648 84.6054 95.7219C85.8064 97.4923 86.8325 99.3743 87.6692 101.342C88.5188 103.343 89.1673 105.424 89.6054 107.552C90.055 109.747 90.2813 111.981 90.2809 114.221V121.641H77.3312V114.221C77.2979 103.087 68.1732 94.0283 56.9906 94.0283C45.8079 94.0283 36.6831 103.087 36.6499 114.221V129.426C36.6515 130.812 37.2054 132.142 38.1902 133.123C39.175 134.103 40.5103 134.655 41.903 134.656H49.966V147.307ZM155.518 147.307H144.034V134.656H152.097C153.49 134.655 154.825 134.103 155.81 133.123C156.795 132.142 157.349 130.812 157.35 129.426V114.221C157.317 103.087 148.192 94.0283 137.009 94.0283C125.827 94.0283 116.702 103.087 116.669 114.221V121.641H103.719V114.221C103.719 111.981 103.945 109.747 104.394 107.553C104.832 105.424 105.481 103.343 106.33 101.342C107.167 99.3746 108.193 97.4925 109.394 95.7221C110.587 93.965 111.946 92.3253 113.452 90.8254C114.958 89.3259 116.605 87.973 118.37 86.7852C120.148 85.5893 122.038 84.5677 124.014 83.7347C126.024 82.8886 128.113 82.2428 130.251 81.8067C132.455 81.3591 134.699 81.1339 136.948 81.1344C139.198 81.1339 141.441 81.3591 143.645 81.8067C145.783 82.2427 147.873 82.8886 149.883 83.7347C151.859 84.5677 153.749 85.5893 155.527 86.7852C157.291 87.973 158.938 89.3259 160.444 90.8254C161.951 92.3253 163.309 93.965 164.502 95.7221C165.703 97.4925 166.729 99.3746 167.566 101.342C168.416 103.343 169.064 105.424 169.502 107.553C169.952 109.747 170.178 111.981 170.178 114.221V132.71C170.178 133.698 170.078 134.684 169.88 135.652C169.687 136.591 169.4 137.509 169.026 138.392C168.656 139.26 168.204 140.09 167.674 140.871C167.148 141.646 166.548 142.37 165.884 143.032C165.219 143.693 164.493 144.29 163.714 144.814C162.93 145.342 162.096 145.792 161.224 146.16C160.337 146.533 159.415 146.818 158.472 147.01C157.5 147.208 156.51 147.307 155.518 147.307ZM30.4194 90.2253V60.8827C30.1074 60.6488 29.8123 60.3935 29.5363 60.1185C28.7831 59.3706 28.1829 58.4842 27.769 57.5086C27.3395 56.4974 27.1193 55.4104 27.1215 54.3126C27.1193 53.2147 27.3395 52.1276 27.769 51.1165C28.1829 50.1409 28.7831 49.2545 29.5363 48.5067C30.2874 47.7568 31.1775 47.1591 32.1573 46.7469C33.1729 46.3193 34.2646 46.1 35.3672 46.1022C36.4698 46.1 37.5615 46.3193 38.5769 46.7469C39.5568 47.1591 40.447 47.7568 41.1981 48.5067C41.9513 49.2545 42.5515 50.1408 42.9654 51.1165C43.395 52.1276 43.6152 53.2147 43.6129 54.3126C43.6152 55.4104 43.395 56.4975 42.9654 57.5086C42.5515 58.4843 41.9513 59.3706 41.1981 60.1185C40.922 60.3935 40.6269 60.6489 40.3149 60.8827V82.5697C36.5915 84.5247 33.2421 87.1158 30.4194 90.2248V90.2253ZM35.3671 50.7745C34.4251 50.7756 33.5219 51.1487 32.8557 51.812C32.1896 52.4753 31.8149 53.3746 31.8138 54.3126C31.8149 55.2506 32.1896 56.1499 32.8557 56.8132C33.5219 57.4765 34.4251 57.8496 35.3671 57.8506C36.3092 57.8496 37.2124 57.4765 37.8785 56.8132C38.5447 56.1499 38.9194 55.2506 38.9204 54.3126C38.9194 53.3746 38.5447 52.4753 37.8785 51.812C37.2124 51.1487 36.3092 50.7756 35.3671 50.7745ZM163.581 90.2253C160.758 87.1163 157.408 84.5252 153.685 82.5702V60.8827C153.373 60.6488 153.078 60.3935 152.802 60.1185C152.049 59.3706 151.449 58.4842 151.035 57.5086C150.605 56.4975 150.385 55.4104 150.387 54.3126C150.385 53.2147 150.605 52.1276 151.035 51.1165C151.449 50.1408 152.049 49.2545 152.802 48.5067C153.553 47.7568 154.443 47.1592 155.423 46.747C156.439 46.3193 157.53 46.1 158.633 46.1023C159.735 46.1 160.827 46.3193 161.843 46.747C162.822 47.1591 163.713 47.7567 164.464 48.5067C165.217 49.2545 165.817 50.1408 166.231 51.1165C166.661 52.1276 166.881 53.2147 166.878 54.3126C166.881 55.4104 166.661 56.4975 166.231 57.5086C165.817 58.4842 165.217 59.3706 164.464 60.1185C164.188 60.3935 163.893 60.6489 163.581 60.8827V90.2252V90.2253ZM158.633 50.7747C157.691 50.7757 156.788 51.1488 156.122 51.8121C155.455 52.4753 155.081 53.3746 155.08 54.3126C155.081 55.2506 155.455 56.1499 156.122 56.8131C156.788 57.4764 157.691 57.8495 158.633 57.8506C159.575 57.8495 160.478 57.4764 161.144 56.8131C161.81 56.1499 162.185 55.2506 162.186 54.3126C162.185 53.3746 161.81 52.4753 161.144 51.8121C160.478 51.1488 159.575 50.7757 158.633 50.7747ZM67.4358 79.9759C64.2244 79.0138 60.8936 78.5041 57.5403 78.4616V38.5601C57.5385 36.9799 56.9073 35.4648 55.785 34.3474C54.6628 33.23 53.1412 32.6015 51.5542 32.5997H34.3911C34.1564 32.9104 33.9 33.2043 33.6238 33.4792C32.8726 34.229 31.9824 34.8266 31.0026 35.2388C29.9871 35.6666 28.8954 35.8858 27.7928 35.8835C26.6903 35.8858 25.5986 35.6666 24.5832 35.2388C23.6033 34.8267 22.7131 34.2291 21.9619 33.4792C21.2087 32.7314 20.6085 31.8451 20.1948 30.8694C19.765 29.8583 19.5445 28.7712 19.5466 27.6733C19.5444 26.5754 19.7648 25.4884 20.1947 24.4774C20.6085 23.5017 21.2087 22.6153 21.9618 21.8675C22.713 21.1176 23.6032 20.52 24.583 20.1078C25.5985 19.6801 26.6901 19.4608 27.7927 19.4631C28.8953 19.4608 29.987 19.6801 31.0025 20.1078C31.9823 20.52 32.8725 21.1176 33.6237 21.8675C33.8999 22.1424 34.1563 22.4363 34.3911 22.7471H53.3866C54.3376 22.7468 55.2861 22.842 56.2179 23.0312C57.1218 23.2155 58.0053 23.4885 58.8552 23.8462C59.6906 24.1982 60.4897 24.63 61.2414 25.1356C61.9876 25.6378 62.6838 26.2098 63.3207 26.8438C63.9574 27.478 64.532 28.1713 65.0364 28.9141C65.544 29.6627 65.9777 30.4584 66.3314 31.2901C66.6905 32.1364 66.9647 33.016 67.1499 33.916C67.3401 34.8439 67.4359 35.7885 67.4358 36.7355V79.9757V79.9759ZM27.7928 24.1354C26.8508 24.1364 25.9476 24.5095 25.2815 25.1728C24.6154 25.836 24.2407 26.7353 24.2396 27.6733C24.2407 28.6113 24.6153 29.5106 25.2815 30.1739C25.9476 30.8372 26.8508 31.2103 27.7928 31.2113C28.7349 31.2103 29.6381 30.8372 30.3042 30.1739C30.9703 29.5106 31.345 28.6113 31.346 27.6733C31.345 26.7353 30.9703 25.836 30.3041 25.1728C29.638 24.5095 28.7349 24.1364 27.7928 24.1354ZM126.564 79.9757V36.7355C126.564 35.7886 126.66 34.8441 126.85 33.9164C127.035 33.0163 127.309 32.1368 127.668 31.2905C128.022 30.4587 128.455 29.6629 128.963 28.9144C129.467 28.1715 130.042 27.4783 130.679 26.8442C131.315 26.2102 132.012 25.6382 132.758 25.136C133.51 24.6305 134.309 24.1986 135.144 23.8466C135.994 23.4889 136.877 23.2159 137.781 23.0316C138.713 22.8422 139.662 22.7468 140.613 22.7468H159.609C159.844 22.4362 160.1 22.1423 160.376 21.8675C161.127 21.1176 162.018 20.52 162.997 20.1078C164.013 19.6801 165.105 19.4609 166.207 19.4631C167.31 19.4608 168.401 19.6801 169.417 20.1078C170.397 20.52 171.287 21.1176 172.038 21.8675C172.791 22.6154 173.392 23.5017 173.805 24.4774C174.235 25.4885 174.455 26.5755 174.453 27.6733C174.455 28.7712 174.235 29.8582 173.805 30.8694C173.392 31.845 172.791 32.7314 172.038 33.4793C171.287 34.2291 170.397 34.8267 169.417 35.2388C168.401 35.6666 167.31 35.8858 166.207 35.8835C165.105 35.8858 164.013 35.6665 162.997 35.2388C162.018 34.8267 161.127 34.2291 160.376 33.4793C160.1 33.2043 159.844 32.9104 159.609 32.5997H142.446C140.859 32.6015 139.337 33.2301 138.215 34.3475C137.093 35.4649 136.462 36.9799 136.46 38.5601V78.4616C133.106 78.504 129.776 79.0137 126.564 79.9757ZM166.207 24.1354C165.265 24.1364 164.362 24.5095 163.696 25.1728C163.03 25.836 162.655 26.7353 162.654 27.6733C162.655 28.6113 163.03 29.5106 163.696 30.1739C164.362 30.8372 165.265 31.2103 166.207 31.2113C167.149 31.2103 168.052 30.8372 168.719 30.1739C169.385 29.5106 169.76 28.6113 169.761 27.6733C169.76 26.7352 169.385 25.836 168.719 25.1727C168.052 24.5094 167.149 24.1364 166.207 24.1354Z" fill="#1F2541"/>
<path d="M110.8 127.249C114.037 127.249 116.661 124.637 116.661 121.414C116.661 118.191 114.037 115.579 110.8 115.579H109.572C106.335 115.579 103.711 118.191 103.711 121.414C103.711 124.637 106.335 127.249 109.572 127.249H110.8Z" fill="#1F2541"/>
<path d="M110.8 165.688C114.037 165.688 116.661 163.075 116.661 159.853C116.661 156.63 114.037 154.017 110.8 154.017H109.572C106.335 154.017 103.711 156.63 103.711 159.853C103.711 163.075 106.335 165.688 109.572 165.688H110.8Z" fill="#1F2541"/>
<path d="M138.532 141.485C138.532 144.707 141.156 147.32 144.393 147.32C147.629 147.32 150.253 144.707 150.253 141.485V140.505C150.253 137.282 147.629 134.669 144.393 134.669C141.156 134.669 138.532 137.282 138.532 140.505V141.485Z" fill="#1F2541"/>
<path d="M49.5917 134.669H49.5916C46.3549 134.669 43.7311 137.282 43.7311 140.505V141.485C43.7311 144.708 46.3549 147.32 49.5916 147.32H49.5917C52.8283 147.32 55.4521 144.708 55.4521 141.485V140.505C55.4521 137.282 52.8283 134.669 49.5917 134.669Z" fill="#1F2541"/>
<path d="M84.4125 127.249C87.6492 127.249 90.273 124.637 90.273 121.414C90.273 118.191 87.6492 115.579 84.4125 115.579H83.184C79.9473 115.579 77.3234 118.191 77.3234 121.414C77.3234 124.637 79.9473 127.249 83.184 127.249H84.4125Z" fill="#1F2541"/>
<path d="M84.4125 165.688C87.6492 165.688 90.273 163.075 90.273 159.853C90.273 156.63 87.6492 154.017 84.4125 154.017H83.184C79.9473 154.017 77.3234 156.63 77.3234 159.853C77.3234 163.075 79.9473 165.688 83.184 165.688H84.4125Z" fill="#1F2541"/>
<path d="M135.482 122.868H138.537C141.775 122.868 144.401 120.254 144.401 117.029V111.87C144.401 108.645 141.775 106.031 138.537 106.031H135.482C132.244 106.031 129.618 108.645 129.618 111.87V117.029C129.618 120.254 132.244 122.868 135.482 122.868Z" fill="#1F2541"/>
<path d="M55.4477 122.868H58.5019C61.7405 122.868 64.3658 120.254 64.3658 117.029V111.87C64.3658 108.645 61.7405 106.031 58.5019 106.031H55.4477C52.2091 106.031 49.5837 108.645 49.5837 111.87V117.029C49.5837 120.254 52.2091 122.868 55.4477 122.868Z" fill="#1F2541"/>
</svg>
