<svg width="920" height="816" viewBox="0 0 920 816" fill="none" xmlns="http://www.w3.org/2000/svg">
<path d="M288.118 683.439C288.105 684.529 288.306 685.612 288.711 686.625C289.074 687.515 289.623 688.317 290.322 688.978C291.006 689.618 291.813 690.113 292.693 690.435C293.615 690.771 294.589 690.94 295.57 690.935C296.561 690.942 297.546 690.772 298.477 690.435C299.358 690.115 300.164 689.619 300.845 688.978C301.539 688.317 302.083 687.514 302.438 686.625C302.837 685.61 303.035 684.528 303.022 683.439V642.576C303.044 641.489 302.889 640.406 302.562 639.368C302.308 638.573 301.869 637.849 301.279 637.256C300.725 636.722 300.053 636.324 299.318 636.095C298.511 635.847 297.67 635.727 296.826 635.74C296.199 635.737 295.573 635.797 294.959 635.92C294.382 636.039 293.82 636.221 293.285 636.466C292.734 636.719 292.21 637.027 291.721 637.383C291.179 637.779 290.665 638.212 290.185 638.68L279.928 648.823C279.502 649.244 279.117 649.705 278.777 650.199C278.46 650.661 278.19 651.154 277.973 651.671C277.762 652.172 277.604 652.692 277.5 653.225C277.396 653.761 277.344 654.305 277.345 654.85C277.343 655.833 277.52 656.808 277.867 657.727C278.199 658.606 278.693 659.415 279.322 660.113C279.936 660.799 280.684 661.353 281.519 661.743C282.386 662.143 283.329 662.349 284.284 662.346C284.616 662.346 284.948 662.324 285.278 662.279C285.608 662.234 285.935 662.167 286.257 662.08C286.581 661.993 286.899 661.885 287.21 661.758C287.522 661.63 287.826 661.483 288.121 661.318L288.118 683.439ZM328.255 683.439C328.242 684.529 328.444 685.612 328.849 686.625C329.211 687.515 329.76 688.317 330.46 688.978C331.144 689.618 331.95 690.113 332.831 690.435C333.752 690.771 334.726 690.94 335.707 690.935C336.699 690.942 337.683 690.772 338.615 690.435C339.496 690.115 340.301 689.619 340.983 688.978C341.677 688.317 342.22 687.514 342.576 686.625C342.975 685.61 343.173 684.528 343.159 683.439V642.576C343.182 641.489 343.027 640.406 342.699 639.368C342.445 638.573 342.006 637.85 341.416 637.257C340.863 636.723 340.193 636.325 339.458 636.095C338.652 635.847 337.811 635.727 336.967 635.74C336.34 635.737 335.714 635.797 335.099 635.92C334.522 636.039 333.961 636.221 333.425 636.466C332.875 636.719 332.351 637.027 331.861 637.383C331.319 637.779 330.806 638.212 330.325 638.68L320.071 648.822C319.645 649.244 319.26 649.705 318.92 650.198C318.603 650.66 318.333 651.154 318.116 651.67C317.905 652.171 317.747 652.692 317.643 653.225C317.539 653.76 317.487 654.304 317.488 654.849C317.486 655.831 317.663 656.806 318.009 657.725C318.34 658.604 318.831 659.413 319.458 660.113C320.072 660.798 320.82 661.353 321.655 661.743C322.522 662.142 323.465 662.348 324.42 662.346C324.752 662.345 325.084 662.323 325.414 662.278C325.744 662.233 326.071 662.167 326.393 662.08C326.717 661.992 327.035 661.884 327.346 661.757C327.658 661.629 327.962 661.482 328.256 661.317L328.255 683.439ZM368.393 683.439C368.38 684.529 368.582 685.612 368.987 686.625C369.349 687.515 369.898 688.317 370.597 688.978C371.281 689.618 372.088 690.113 372.968 690.435C373.89 690.771 374.864 690.94 375.845 690.935C376.836 690.942 377.821 690.772 378.753 690.435C379.633 690.115 380.439 689.619 381.12 688.978C381.815 688.317 382.358 687.514 382.714 686.625C383.112 685.61 383.31 684.528 383.297 683.439V642.576C383.32 641.489 383.164 640.406 382.837 639.368C382.583 638.573 382.143 637.85 381.554 637.257C381 636.723 380.328 636.325 379.593 636.096C378.786 635.848 377.945 635.728 377.102 635.741C376.474 635.737 375.849 635.797 375.234 635.921C374.657 636.039 374.095 636.222 373.56 636.466C373.009 636.72 372.485 637.027 371.996 637.384C371.454 637.779 370.941 638.213 370.46 638.68L360.206 648.823C359.78 649.244 359.394 649.705 359.055 650.199C358.738 650.661 358.468 651.154 358.25 651.671C358.04 652.172 357.882 652.692 357.777 653.225C357.674 653.76 357.622 654.304 357.623 654.849C357.621 655.832 357.797 656.806 358.144 657.726C358.475 658.604 358.966 659.414 359.593 660.113C360.207 660.799 360.954 661.353 361.79 661.743C362.656 662.143 363.6 662.349 364.555 662.346C364.887 662.346 365.219 662.324 365.548 662.279C365.879 662.234 366.206 662.167 366.528 662.08C366.852 661.993 367.17 661.885 367.48 661.758C367.793 661.63 368.097 661.483 368.391 661.318L368.393 683.439ZM428.747 669.548C428.765 670.563 428.598 671.572 428.254 672.527C427.959 673.329 427.48 674.052 426.856 674.638C426.227 675.21 425.481 675.639 424.669 675.894C423.744 676.182 422.779 676.323 421.811 676.309C420.87 676.322 419.933 676.181 419.038 675.894C418.24 675.636 417.509 675.207 416.894 674.638C416.277 674.049 415.804 673.327 415.512 672.527C415.171 671.572 415.005 670.562 415.022 669.548V657.054C415.006 656.05 415.172 655.051 415.512 654.106C415.806 653.306 416.279 652.583 416.894 651.992C417.508 651.418 418.239 650.983 419.038 650.718C419.932 650.425 420.869 650.281 421.811 650.293C422.78 650.28 423.745 650.424 424.669 650.718C425.482 650.98 426.228 651.415 426.856 651.992C427.479 652.58 427.957 653.304 428.254 654.106C428.597 655.051 428.763 656.05 428.747 657.054V669.548ZM443.798 659.334C443.857 655.806 443.378 652.289 442.376 648.905C441.553 646.136 440.12 643.585 438.181 641.438C436.286 639.416 433.932 637.876 431.316 636.948C425.189 634.948 418.581 634.948 412.453 636.948C409.837 637.876 407.483 639.416 405.588 641.438C403.649 643.585 402.216 646.136 401.393 648.905C400.391 652.289 399.912 655.806 399.971 659.334V667.27C399.912 670.812 400.391 674.343 401.393 677.742C402.214 680.518 403.648 683.076 405.588 685.23C407.481 687.256 409.836 688.799 412.453 689.728C418.58 691.73 425.189 691.73 431.316 689.728C433.933 688.799 436.288 687.256 438.181 685.23C440.122 683.076 441.555 680.518 442.376 677.742C443.378 674.343 443.858 670.812 443.798 667.27V659.334ZM469.031 683.44C469.019 684.531 469.22 685.613 469.625 686.627C469.987 687.516 470.537 688.318 471.236 688.979C471.92 689.619 472.726 690.114 473.607 690.436C474.528 690.772 475.503 690.942 476.484 690.936C477.475 690.943 478.459 690.774 479.391 690.436C480.272 690.116 481.078 689.62 481.759 688.979C482.453 688.318 482.997 687.515 483.352 686.627C483.751 685.612 483.949 684.53 483.936 683.44V642.576C483.958 641.489 483.803 640.406 483.476 639.368C483.222 638.573 482.782 637.85 482.192 637.257C481.639 636.723 480.967 636.325 480.231 636.096C479.425 635.848 478.584 635.728 477.74 635.741C477.113 635.737 476.487 635.797 475.872 635.921C475.296 636.039 474.734 636.222 474.199 636.466C473.648 636.72 473.124 637.027 472.634 637.384C472.092 637.779 471.579 638.213 471.099 638.68L460.844 648.823C460.418 649.244 460.033 649.705 459.694 650.199C459.376 650.661 459.107 651.154 458.889 651.671C458.679 652.172 458.52 652.692 458.416 653.225C458.312 653.76 458.26 654.304 458.261 654.849C458.259 655.832 458.436 656.806 458.783 657.726C459.113 658.604 459.604 659.414 460.231 660.113C460.846 660.799 461.593 661.353 462.429 661.743C463.295 662.143 464.239 662.349 465.193 662.346C465.526 662.346 465.858 662.324 466.187 662.279C466.517 662.234 466.845 662.167 467.167 662.08C467.49 661.993 467.809 661.885 468.119 661.758C468.431 661.63 468.735 661.483 469.03 661.318L469.031 683.44ZM529.385 669.549C529.403 670.564 529.236 671.573 528.893 672.528C528.598 673.331 528.119 674.053 527.494 674.639C526.866 675.211 526.119 675.64 525.307 675.895C524.383 676.184 523.418 676.324 522.449 676.311C521.509 676.323 520.572 676.182 519.677 675.895C518.879 675.637 518.147 675.208 517.533 674.639C516.916 674.05 516.443 673.328 516.151 672.528C515.809 671.573 515.643 670.564 515.661 669.549V657.054C515.644 656.05 515.81 655.051 516.151 654.106C516.445 653.306 516.917 652.583 517.533 651.992C518.147 651.418 518.878 650.983 519.677 650.718C520.571 650.425 521.508 650.281 522.449 650.293C523.419 650.28 524.384 650.424 525.307 650.718C526.12 650.98 526.866 651.415 527.494 651.992C528.117 652.58 528.596 653.304 528.893 654.106C529.235 655.051 529.402 656.05 529.385 657.054V669.549ZM544.437 659.335C544.496 655.807 544.016 652.29 543.015 648.906C542.192 646.137 540.759 643.586 538.82 641.44C536.925 639.417 534.571 637.877 531.955 636.949C525.827 634.95 519.219 634.95 513.092 636.949C510.476 637.877 508.121 639.417 506.227 641.44C504.288 643.586 502.854 646.137 502.031 648.906C501.03 652.29 500.551 655.807 500.61 659.335V667.27C500.55 670.812 501.03 674.343 502.031 677.742C502.853 680.518 504.286 683.076 506.227 685.23C508.12 687.256 510.475 688.799 513.092 689.728C519.219 691.73 525.828 691.73 531.955 689.728C534.572 688.799 536.926 687.256 538.82 685.23C540.76 683.076 542.193 680.518 543.015 677.742C544.017 674.343 544.496 670.812 544.437 667.27V659.335ZM569.67 683.441C569.657 684.532 569.859 685.614 570.264 686.628C570.626 687.517 571.175 688.32 571.874 688.98C572.558 689.62 573.365 690.116 574.246 690.438C575.167 690.773 576.141 690.943 577.122 690.937C578.113 690.944 579.098 690.775 580.03 690.438C580.91 690.118 581.716 689.622 582.398 688.98C583.092 688.319 583.635 687.517 583.991 686.628C584.39 685.613 584.588 684.531 584.574 683.441V642.576C584.597 641.489 584.441 640.406 584.114 639.368C583.86 638.573 583.421 637.85 582.831 637.257C582.278 636.723 581.606 636.325 580.871 636.095C580.065 635.847 579.224 635.727 578.38 635.74C577.753 635.737 577.127 635.797 576.512 635.92C575.935 636.039 575.374 636.221 574.838 636.466C574.288 636.719 573.764 637.027 573.274 637.383C572.732 637.779 572.219 638.212 571.738 638.68L561.484 648.822C561.058 649.244 560.673 649.705 560.333 650.198C560.016 650.66 559.746 651.154 559.529 651.67C559.318 652.171 559.16 652.692 559.056 653.225C558.952 653.76 558.9 654.304 558.901 654.849C558.899 655.831 559.076 656.806 559.423 657.725C559.753 658.604 560.244 659.413 560.871 660.113C561.485 660.798 562.233 661.353 563.068 661.743C563.935 662.142 564.878 662.348 565.833 662.346C566.165 662.345 566.497 662.323 566.827 662.278C567.157 662.233 567.484 662.167 567.806 662.08C568.13 661.992 568.448 661.884 568.759 661.757C569.071 661.629 569.375 661.482 569.669 661.317L569.67 683.441ZM630.024 669.551C630.042 670.565 629.875 671.574 629.531 672.529C629.236 673.332 628.757 674.054 628.133 674.64C627.504 675.212 626.758 675.641 625.946 675.896C625.021 676.185 624.057 676.325 623.088 676.312C622.147 676.324 621.211 676.184 620.315 675.896C619.517 675.638 618.786 675.209 618.172 674.64C617.554 674.051 617.082 673.328 616.79 672.527C616.449 671.572 616.283 670.562 616.3 669.548V657.054C616.284 656.05 616.45 655.051 616.79 654.106C617.084 653.306 617.557 652.583 618.173 651.992C618.786 651.418 619.518 650.983 620.316 650.718C621.211 650.425 622.148 650.281 623.089 650.293C624.059 650.28 625.024 650.424 625.947 650.718C626.76 650.98 627.506 651.415 628.134 651.992C628.757 652.58 629.236 653.304 629.533 654.106C629.875 655.051 630.042 656.05 630.025 657.054L630.024 669.551ZM645.075 659.336C645.134 655.808 644.655 652.292 643.654 648.907C642.831 646.138 641.397 643.587 639.459 641.441C637.564 639.418 635.209 637.879 632.593 636.95C626.466 634.951 619.858 634.951 613.73 636.95C611.114 637.879 608.76 639.418 606.865 641.441C604.926 643.587 603.493 646.138 602.67 648.907C601.669 652.292 601.19 655.808 601.249 659.336V667.27C601.189 670.812 601.668 674.343 602.67 677.742C603.492 680.518 604.925 683.076 606.865 685.23C608.759 687.256 611.113 688.799 613.73 689.728C619.858 691.73 626.466 691.73 632.593 689.728C635.211 688.799 637.565 687.256 639.459 685.23C641.399 683.076 642.832 680.518 643.654 677.742C644.655 674.343 645.135 670.812 645.075 667.27V659.336Z" fill="#E2EAF1"/>
<path d="M746.196 816H517.935C514.449 816.007 510.998 815.312 507.787 813.959C504.69 812.655 501.877 810.765 499.503 808.393C497.122 806.028 495.224 803.225 493.915 800.14C492.556 796.943 491.858 793.504 491.864 790.031V754.829H748.514C809.21 754.829 858.589 705.642 858.589 645.182V95.7963C858.579 86.6163 854.914 77.8152 848.397 71.3239C841.88 64.8326 833.045 61.1814 823.829 61.1712H663.35C602.654 61.1712 553.275 110.359 553.275 170.818V364.68C547.496 367.797 541.819 371.229 536.399 374.877C525.661 382.107 515.641 390.343 506.475 399.471C501.317 404.611 496.44 410.023 491.864 415.684V415.641C478.318 432.393 467.559 451.202 460 471.351C452.441 451.202 441.682 432.393 428.136 415.641V415.684C423.56 410.023 418.683 404.611 413.525 399.471C404.359 390.342 394.339 382.107 383.601 374.878C378.176 371.226 372.498 367.796 366.725 364.68V170.818C366.725 110.359 317.346 61.1712 256.65 61.1712H96.1713C86.9554 61.1815 78.1199 64.8329 71.6033 71.3241C65.0867 77.8154 61.421 86.6163 61.4106 95.7963V645.182C61.4106 705.641 110.79 754.829 171.486 754.829H428.136V790.031C428.143 793.503 427.446 796.941 426.087 800.139C424.778 803.224 422.881 806.026 420.5 808.391C418.126 810.763 415.313 812.653 412.216 813.957C409.005 815.312 405.552 816.006 402.065 816H173.804C162.039 816.002 150.304 814.822 138.776 812.48C127.594 810.198 116.665 806.819 106.151 802.392C95.8162 798.033 85.9293 792.688 76.6289 786.43C67.3989 780.214 58.7854 773.136 50.9059 765.29C43.0294 757.441 35.9231 748.861 29.6834 739.667C23.4011 730.403 18.0344 720.554 13.6586 710.259C9.21455 699.786 5.8222 688.901 3.53109 677.762C1.18087 666.28 -0.00211791 654.592 2.84632e-06 642.874V86.5629C-0.00135246 80.7035 0.590308 74.8589 1.7659 69.1176C2.91155 63.5481 4.60782 58.1053 6.82994 52.8686C9.01749 47.7212 11.7005 42.797 14.8416 38.165C17.9616 33.5678 21.5153 29.2779 25.4541 25.3537C29.3934 21.4301 33.7001 17.8905 38.3156 14.7832C42.9656 11.6542 47.9091 8.98139 53.0767 6.80211C58.3336 4.5885 63.7976 2.89884 69.3887 1.75782C75.1523 0.587419 81.0196 -0.00150288 86.9018 4.06553e-06H254.333C266.098 -0.00160287 277.833 1.17775 289.36 3.52022C300.543 5.80189 311.471 9.18111 321.985 13.6083C332.321 17.9667 342.208 23.3122 351.508 29.5699C360.738 35.7852 369.352 42.8641 377.231 50.7103C385.108 58.5589 392.215 67.1387 398.454 76.3329C404.737 85.5975 410.103 95.4465 414.479 105.742C418.923 116.214 422.316 127.1 424.606 138.239C426.956 149.72 428.139 161.408 428.136 173.126V327.785C439.46 336.074 450.113 345.233 460 355.18C469.887 345.234 480.541 336.074 491.864 327.785V173.126C491.862 161.407 493.046 149.718 495.398 138.235C497.688 127.096 501.081 116.211 505.525 105.738C509.901 95.4429 515.268 85.5942 521.55 76.3295C527.789 67.1353 534.896 58.5555 542.773 50.7068C550.652 42.8607 559.265 35.782 568.496 29.567C577.796 23.3088 587.683 17.9631 598.018 13.6048C608.533 9.17744 619.461 5.79829 630.644 3.51676C642.17 1.17568 653.904 -0.00252583 665.668 4.06553e-06H833.098C838.981 -0.00119315 844.848 0.588089 850.612 1.75895C856.203 2.89942 861.667 4.5891 866.924 6.80324C872.092 8.98187 877.035 11.6544 881.686 14.7832C886.301 17.8911 890.607 21.4306 894.547 25.3537C898.485 29.278 902.039 33.568 905.158 38.165C908.3 42.797 910.983 47.7212 913.171 52.8686C915.393 58.1053 917.089 63.5481 918.235 69.1176C919.41 74.8589 920.002 80.7035 920 86.5629V642.874C920.003 654.593 918.82 666.282 916.469 677.765C914.178 688.904 910.786 699.789 906.342 710.262C901.966 720.557 896.6 730.406 890.317 739.67C884.078 748.864 876.972 757.444 869.095 765.293C861.215 773.138 852.602 780.217 843.372 786.433C834.071 792.691 824.184 798.036 813.849 802.395C803.335 806.822 792.407 810.201 781.224 812.483C769.697 814.824 757.961 816.003 746.196 816ZM236.952 698.852H182.494C177.788 698.853 173.094 698.381 168.483 697.445C164.01 696.532 159.639 695.181 155.433 693.41C151.299 691.667 147.344 689.528 143.624 687.025C139.932 684.539 136.486 681.707 133.335 678.569C130.184 675.429 127.342 671.997 124.845 668.32C122.333 664.614 120.186 660.674 118.436 656.556C116.658 652.367 115.3 648.013 114.384 643.557C113.444 638.964 112.971 634.289 112.972 629.601V541.884C112.97 531.259 114.042 520.66 116.173 510.249C118.25 500.15 121.326 490.28 125.356 480.784C129.323 471.451 134.189 462.522 139.885 454.123C145.542 445.787 151.985 438.008 159.126 430.892C166.27 423.779 174.079 417.361 182.448 411.725C190.88 406.052 199.844 401.205 209.214 397.253C218.746 393.239 228.654 390.175 238.793 388.107C249.246 385.983 259.887 384.914 270.554 384.917C281.221 384.914 291.861 385.983 302.312 388.106C312.451 390.175 322.359 393.239 331.892 397.252C341.262 401.204 350.226 406.051 358.658 411.724C367.026 417.36 374.836 423.778 381.98 430.892C389.121 438.008 395.564 445.787 401.221 454.122C406.917 462.522 411.783 471.45 415.751 480.784C419.78 490.28 422.855 500.149 424.933 510.249C427.065 520.66 428.138 531.258 428.136 541.884V577.086H366.725V541.884C366.567 489.062 323.295 446.088 270.264 446.088C217.234 446.088 173.961 489.062 173.804 541.884V614.02C173.811 620.599 176.438 626.906 181.108 631.558C185.779 636.21 192.111 638.827 198.715 638.834H236.952V698.852ZM737.506 698.852H683.048V638.834H721.285C727.889 638.827 734.221 636.21 738.892 631.558C743.562 626.906 746.189 620.599 746.196 614.02V541.884C746.039 489.062 702.767 446.088 649.736 446.088C596.704 446.088 553.432 489.062 553.275 541.884V577.086H491.864V541.884C491.861 531.259 492.934 520.66 495.065 510.249C497.142 500.15 500.218 490.28 504.247 480.785C508.215 471.452 513.081 462.523 518.776 454.124C524.434 445.788 530.877 438.009 538.019 430.892C545.163 423.778 552.972 417.36 561.341 411.725C569.773 406.052 578.737 401.205 588.107 397.253C597.639 393.239 607.548 390.175 617.687 388.106C628.139 385.983 638.779 384.914 649.446 384.917C660.113 384.914 670.753 385.983 681.204 388.106C691.343 390.175 701.251 393.239 710.784 397.253C720.154 401.205 729.118 406.052 737.55 411.725C745.918 417.36 753.727 423.779 760.871 430.892C768.013 438.008 774.456 445.787 780.114 454.124C785.809 462.523 790.675 471.452 794.643 480.785C798.672 490.28 801.748 500.15 803.825 510.249C805.957 520.66 807.03 531.259 807.028 541.884V629.601C807.029 634.289 806.556 638.964 805.615 643.557C804.699 648.013 803.342 652.367 801.565 656.556C799.814 660.674 797.668 664.614 795.155 668.32C792.658 671.997 789.815 675.429 786.665 678.569C783.513 681.707 780.068 684.539 776.376 687.025C772.656 689.528 768.701 691.666 764.567 693.41C760.361 695.181 755.99 696.532 751.517 697.445C746.906 698.381 742.212 698.853 737.506 698.852ZM144.257 428.046V288.839C142.777 287.729 141.378 286.518 140.069 285.213C136.497 281.665 133.651 277.46 131.688 272.831C129.651 268.034 128.607 262.877 128.617 257.669C128.607 252.46 129.651 247.303 131.688 242.506C133.651 237.878 136.497 233.673 140.069 230.125C143.631 226.567 147.852 223.732 152.499 221.776C157.315 219.747 162.492 218.707 167.721 218.717C172.95 218.707 178.126 219.747 182.942 221.776C187.589 223.732 191.81 226.567 195.373 230.125C198.945 233.672 201.791 237.877 203.753 242.506C205.791 247.303 206.835 252.46 206.824 257.669C206.835 262.877 205.791 268.035 203.753 272.831C201.791 277.46 198.944 281.665 195.373 285.213C194.063 286.518 192.664 287.729 191.184 288.839V391.726C173.527 401.001 157.643 413.293 144.257 428.043V428.046ZM167.72 240.884C163.253 240.889 158.97 242.659 155.811 245.806C152.652 248.952 150.875 253.219 150.87 257.669C150.875 262.119 152.652 266.386 155.811 269.532C158.97 272.679 163.253 274.449 167.72 274.454C172.188 274.449 176.471 272.679 179.63 269.532C182.789 266.386 184.566 262.119 184.571 257.669C184.566 253.219 182.789 248.952 179.63 245.806C176.471 242.659 172.188 240.889 167.72 240.884ZM775.743 428.046C762.357 413.296 746.473 401.003 728.816 391.728V288.839C727.336 287.729 725.937 286.518 724.628 285.213C721.056 281.665 718.21 277.46 716.247 272.831C714.21 268.034 713.166 262.877 713.177 257.669C713.166 252.46 714.21 247.303 716.247 242.506C718.21 237.877 721.056 233.673 724.628 230.125C728.19 226.567 732.411 223.732 737.058 221.777C741.874 219.747 747.051 218.707 752.28 218.718C757.508 218.707 762.685 219.747 767.501 221.777C772.148 223.732 776.37 226.567 779.932 230.125C783.504 233.672 786.35 237.877 788.312 242.506C790.349 247.303 791.394 252.46 791.383 257.669C791.394 262.877 790.349 268.035 788.312 272.831C786.35 277.46 783.503 281.665 779.932 285.213C778.622 286.518 777.223 287.729 775.743 288.839V428.045V428.046ZM752.28 240.884C747.812 240.89 743.529 242.66 740.37 245.806C737.211 248.953 735.434 253.219 735.429 257.669C735.434 262.119 737.211 266.385 740.37 269.532C743.529 272.679 747.812 274.449 752.28 274.454C756.747 274.449 761.03 272.679 764.189 269.532C767.348 266.385 769.125 262.119 769.13 257.669C769.125 253.219 767.348 248.953 764.189 245.806C761.03 242.66 756.747 240.89 752.28 240.884ZM319.798 379.42C304.569 374.856 288.774 372.438 272.872 372.236V182.936C272.863 175.439 269.87 168.252 264.548 162.951C259.226 157.649 252.01 154.668 244.484 154.659H163.092C161.979 156.133 160.763 157.527 159.453 158.831C155.891 162.389 151.669 165.224 147.023 167.18C142.207 169.209 137.03 170.249 131.801 170.238C126.572 170.249 121.395 169.209 116.58 167.18C111.933 165.224 107.712 162.389 104.149 158.831C100.577 155.284 97.7313 151.079 95.7692 146.45C93.7308 141.653 92.6853 136.496 92.6952 131.287C92.6848 126.079 93.7302 120.922 95.7686 116.125C97.731 111.497 100.577 107.291 104.149 103.743C107.711 100.186 111.933 97.3507 116.579 95.3953C121.395 93.3661 126.572 92.3258 131.8 92.3367C137.029 92.3258 142.206 93.3661 147.022 95.3953C151.669 97.3508 155.89 100.186 159.453 103.743C160.762 105.048 161.978 106.442 163.092 107.916H253.174C257.683 107.915 262.182 108.367 266.6 109.264C270.887 110.139 275.076 111.434 279.107 113.131C283.069 114.801 286.858 116.849 290.423 119.248C293.962 121.63 297.264 124.344 300.284 127.352C303.303 130.361 306.028 133.65 308.42 137.174C310.827 140.725 312.884 144.5 314.561 148.446C316.264 152.461 317.565 156.634 318.443 160.904C319.345 165.306 319.799 169.787 319.798 174.28V379.42V379.42ZM131.801 114.503C127.334 114.508 123.051 116.278 119.892 119.424C116.733 122.571 114.956 126.837 114.951 131.287C114.956 135.737 116.733 140.004 119.891 143.15C123.05 146.297 127.334 148.067 131.801 148.072C136.269 148.067 140.552 146.297 143.711 143.15C146.869 140.004 148.646 135.737 148.651 131.287C148.646 126.837 146.869 122.571 143.71 119.424C140.551 116.278 136.268 114.508 131.801 114.503ZM600.202 379.42V174.28C600.201 169.788 600.654 165.307 601.555 160.905C602.433 156.636 603.733 152.463 605.436 148.448C607.113 144.502 609.17 140.727 611.578 137.175C613.969 133.651 616.693 130.362 619.713 127.354C622.733 124.346 626.035 121.633 629.573 119.25C633.138 116.851 636.928 114.803 640.89 113.133C644.92 111.436 649.109 110.141 653.396 109.266C657.816 108.368 662.315 107.915 666.826 107.915H756.908C758.022 106.441 759.238 105.047 760.547 103.743C764.109 100.186 768.331 97.3508 772.977 95.3953C777.793 93.3663 782.97 92.326 788.199 92.3367C793.428 92.3257 798.605 93.366 803.421 95.3953C808.067 97.3507 812.289 100.186 815.851 103.743C819.423 107.292 822.269 111.497 824.232 116.125C826.269 120.922 827.314 126.079 827.303 131.287C827.313 136.496 826.269 141.653 824.232 146.45C822.269 151.079 819.423 155.284 815.851 158.832C812.289 162.389 808.067 165.224 803.421 167.18C798.605 169.209 793.428 170.249 788.199 170.238C782.97 170.249 777.793 169.209 772.977 167.18C768.331 165.224 764.11 162.389 760.547 158.832C759.238 157.527 758.022 156.133 756.907 154.659H675.516C667.99 154.668 660.775 157.65 655.453 162.951C650.131 168.252 647.137 175.439 647.128 182.936V372.236C631.226 372.438 615.431 374.856 600.202 379.42ZM788.199 114.503C783.732 114.508 779.449 116.278 776.29 119.424C773.131 122.571 771.354 126.837 771.349 131.287C771.354 135.737 773.131 140.004 776.289 143.15C779.448 146.297 783.732 148.067 788.199 148.072C792.667 148.067 796.95 146.297 800.109 143.15C803.268 140.004 805.045 135.737 805.05 131.287C805.045 126.837 803.268 122.571 800.109 119.424C796.95 116.277 792.667 114.507 788.199 114.503Z" fill="#E2EAF1"/>
<path d="M525.445 603.695C540.794 603.695 553.238 591.3 553.238 576.011C553.238 560.722 540.794 548.327 525.445 548.327H519.619C504.27 548.327 491.827 560.722 491.827 576.011C491.827 591.3 504.27 603.695 519.619 603.695H525.445Z" fill="#E2EAF1"/>
<path d="M525.445 786.054C540.794 786.054 553.238 773.659 553.238 758.37C553.238 743.081 540.794 730.686 525.445 730.686H519.619C504.27 730.686 491.827 743.081 491.827 758.37C491.827 773.659 504.27 786.054 519.619 786.054H525.445Z" fill="#E2EAF1"/>
<path d="M656.956 671.23C656.956 686.519 669.399 698.914 684.748 698.914C700.098 698.914 712.541 686.519 712.541 671.23V666.581C712.541 651.291 700.098 638.897 684.748 638.897C669.399 638.897 656.956 651.291 656.956 666.581V671.23Z" fill="#E2EAF1"/>
<path d="M235.177 638.897H235.176C219.828 638.897 207.385 651.291 207.385 666.58V671.23C207.385 686.52 219.828 698.914 235.176 698.914H235.177C250.526 698.914 262.969 686.52 262.969 671.23V666.58C262.969 651.291 250.526 638.897 235.177 638.897Z" fill="#E2EAF1"/>
<path d="M400.307 603.695C415.656 603.695 428.099 591.3 428.099 576.011C428.099 560.722 415.656 548.327 400.307 548.327H394.481C379.131 548.327 366.688 560.722 366.688 576.011C366.688 591.3 379.131 603.695 394.481 603.695H400.307Z" fill="#E2EAF1"/>
<path d="M400.307 786.054C415.656 786.054 428.099 773.659 428.099 758.37C428.099 743.081 415.656 730.686 400.307 730.686H394.481C379.131 730.686 366.688 743.081 366.688 758.37C366.688 773.659 379.131 786.054 394.481 786.054H400.307Z" fill="#E2EAF1"/>
<path d="M642.494 582.91H656.977C672.336 582.91 684.786 570.508 684.786 555.21V530.731C684.786 515.432 672.336 503.031 656.977 503.031H642.494C627.136 503.031 614.685 515.432 614.685 530.731V555.21C614.685 570.508 627.136 582.91 642.494 582.91Z" fill="#E2EAF1"/>
<path d="M262.948 582.91H277.432C292.79 582.91 305.24 570.508 305.24 555.21V530.731C305.24 515.432 292.79 503.031 277.432 503.031H262.948C247.59 503.031 235.139 515.432 235.139 530.731V555.21C235.139 570.508 247.59 582.91 262.948 582.91Z" fill="#E2EAF1"/>
</svg>
