<svg width="80" height="80" viewBox="0 0 80 80" fill="none" xmlns="http://www.w3.org/2000/svg">
<path opacity="0.35" d="M63.3333 66.6667H16.6667C11.1433 66.6667 6.66667 62.19 6.66667 56.6667V23.3333C6.66667 17.81 11.1433 13.3333 16.6667 13.3333H63.3333C68.8567 13.3333 73.3333 17.81 73.3333 23.3333V56.6667C73.3333 62.19 68.8567 66.6667 63.3333 66.6667Z" fill="#69B0D8"/>
<path d="M56.6667 33.3333C60.3486 33.3333 63.3333 30.3486 63.3333 26.6667C63.3333 22.9848 60.3486 20 56.6667 20C52.9848 20 50 22.9848 50 26.6667C50 30.3486 52.9848 33.3333 56.6667 33.3333Z" fill="#69B0D8"/>
<path d="M13.3333 53.3333C13.3333 55.16 14.8267 56.6667 16.6667 56.6667H63.3333C65.1733 56.6667 66.6667 55.1867 66.6667 53.3333C66.6667 48.7867 61.04 43.3333 58.3333 43.3333C55.6267 43.3333 53.1733 46.6667 46.6667 46.6667C38.5267 46.6667 33.3333 30 26.6667 30C20 30 13.3333 44.54 13.3333 53.3333Z" fill="#69B0D8"/>
</svg>
