<svg width="459" height="459" viewBox="0 0 459 459" fill="none" xmlns="http://www.w3.org/2000/svg">
<path d="M142.31 48.4139H155.724V35.0001C148.316 35.0001 142.31 41.0056 142.31 48.4139Z" fill="#252C4A"/>
<path d="M169.138 35.0001H155.724V48.4139H169.138V35.0001Z" fill="#252C4A"/>
<path d="M169.138 35.0001V48.4139H182.552C182.552 41.0056 176.546 35.0001 169.138 35.0001Z" fill="#252C4A"/>
<path d="M209.379 48.4139H222.793V35.0001C215.385 35.0001 209.379 41.0056 209.379 48.4139Z" fill="#252C4A"/>
<path d="M236.207 35.0001H222.793V48.4139H236.207V35.0001Z" fill="#252C4A"/>
<path d="M236.207 35.0001V48.4139H249.621C249.621 41.0056 243.615 35.0001 236.207 35.0001Z" fill="#252C4A"/>
<path d="M289.862 41.707C289.862 43.2702 289.862 48.4139 289.862 48.4139C289.862 48.4139 285.296 48.4139 283.155 48.4136C281.483 48.4139 276.448 48.4136 276.448 48.4136C276.448 48.4136 276.448 43.7391 276.448 41.7069C276.449 38.003 279.451 35.0001 283.155 35.0001C286.859 35.0001 289.862 38.0029 289.862 41.707Z" fill="#252C4A"/>
<path d="M155.724 48.4138H142.31V61.8276H155.724V48.4138Z" fill="#252C4A"/>
<path d="M169.138 48.4138H155.724V61.8276H169.138V48.4138Z" fill="#252C4A"/>
<path d="M182.552 48.4138H169.138V61.8276H182.552V48.4138Z" fill="#252C4A"/>
<path d="M195.966 48.4138H182.552V61.8276H195.966V48.4138Z" fill="#252C4A"/>
<path d="M209.379 48.4138H195.966V61.8276H209.379V48.4138Z" fill="#252C4A"/>
<path d="M222.793 48.4138H209.379V61.8276H222.793V48.4138Z" fill="#252C4A"/>
<path d="M236.207 48.4138H222.793V61.8276H236.207V48.4138Z" fill="#252C4A"/>
<path d="M249.621 48.4138H236.207V61.8276C243.615 61.8276 249.621 55.822 249.621 48.4138Z" fill="#252C4A"/>
<path d="M269.741 48.4138C271.305 48.4138 276.448 48.4138 276.448 48.4138C276.448 48.4138 276.448 52.9794 276.448 55.1207C276.448 56.7922 276.448 61.8276 276.448 61.8276C276.448 61.8276 271.774 61.8276 269.741 61.8276C266.036 61.8276 263.035 58.8235 263.035 55.1207C263.035 51.4175 266.036 48.4138 269.741 48.4138Z" fill="#252C4A"/>
<path d="M289.862 48.4138H276.448V61.8276H289.862V48.4138Z" fill="#252C4A"/>
<path d="M303.276 48.4138H289.862V61.8276H303.276V48.4138Z" fill="#252C4A"/>
<path d="M303.276 48.4138V61.8276H316.69C316.69 54.4193 310.684 48.4138 303.276 48.4138Z" fill="#252C4A"/>
<path d="M155.724 75.2415V61.8278H142.31C142.31 69.236 148.316 75.2415 155.724 75.2415Z" fill="#252C4A"/>
<path d="M169.138 61.8278H155.724V75.2416H169.138V61.8278Z" fill="#252C4A"/>
<path d="M182.552 61.8278H169.138V75.2416H182.552V61.8278Z" fill="#252C4A"/>
<path d="M195.966 61.8278H182.552V75.2416H195.966V61.8278Z" fill="#252C4A"/>
<path d="M222.793 75.2415V61.8278H209.379C209.379 69.236 215.385 75.2415 222.793 75.2415Z" fill="#252C4A"/>
<path d="M236.207 61.8278H222.793V75.2416H236.207V61.8278Z" fill="#252C4A"/>
<path d="M316.69 61.8278H303.276V75.2416H316.69V61.8278Z" fill="#252C4A"/>
<path d="M169.138 75.2415H155.724V88.6552H169.138V75.2415Z" fill="#252C4A"/>
<path d="M182.552 75.2415H169.138V88.6552H182.552V75.2415Z" fill="#252C4A"/>
<path d="M195.966 75.2415H182.552V88.6552H195.966V75.2415Z" fill="#252C4A"/>
<path d="M195.966 75.2415V88.6552H209.379C209.379 81.2469 203.374 75.2415 195.966 75.2415Z" fill="#252C4A"/>
<path d="M236.207 88.6552V75.2415H222.793C222.793 82.6497 228.799 88.6552 236.207 88.6552Z" fill="#252C4A"/>
<path d="M236.207 75.2415V88.6552H249.621C249.621 81.2469 243.615 75.2415 236.207 75.2415Z" fill="#252C4A"/>
<path d="M276.448 81.9484C276.448 83.5115 276.448 88.6552 276.448 88.6552C276.448 88.6552 271.882 88.6552 269.741 88.6549C268.069 88.6552 263.035 88.6549 263.035 88.6549C263.035 88.6549 263.035 83.9805 263.035 81.9482C263.035 78.2443 266.037 75.2415 269.741 75.2415C273.445 75.2415 276.448 78.2443 276.448 81.9484Z" fill="#252C4A"/>
<path d="M289.862 88.6552H303.276V75.2415C295.868 75.2415 289.862 81.2469 289.862 88.6552Z" fill="#252C4A"/>
<path d="M316.69 75.2415H303.276V88.6552C310.684 88.6552 316.69 82.6497 316.69 75.2415Z" fill="#252C4A"/>
<path d="M149.017 88.6553C150.581 88.6553 155.724 88.6553 155.724 88.6553C155.724 88.6553 155.724 93.2208 155.724 95.3622C155.724 97.0337 155.724 102.069 155.724 102.069C155.724 102.069 151.05 102.069 149.017 102.069C145.312 102.069 142.31 99.0649 142.31 95.3622C142.31 91.659 145.312 88.6553 149.017 88.6553Z" fill="#252C4A"/>
<path d="M169.138 88.6553H155.724V102.069H169.138V88.6553Z" fill="#252C4A"/>
<path d="M182.552 88.6553H169.138V102.069C176.546 102.069 182.552 96.0635 182.552 88.6553Z" fill="#252C4A"/>
<path d="M209.379 102.069V88.6553H195.966C195.966 96.0635 201.971 102.069 209.379 102.069Z" fill="#252C4A"/>
<path d="M209.379 88.6553V102.069H222.793C222.793 94.6607 216.788 88.6553 209.379 88.6553Z" fill="#252C4A"/>
<path d="M236.207 95.3622C236.207 93.7989 236.207 88.6553 236.207 88.6553C236.207 88.6553 240.773 88.6553 242.914 88.6553C244.586 88.6553 249.621 88.6553 249.621 88.6553C249.621 88.6553 249.621 93.3303 249.621 95.3622C249.621 99.0661 246.618 102.069 242.914 102.069C239.21 102.069 236.207 99.0661 236.207 95.3622Z" fill="#252C4A"/>
<path d="M276.448 88.6553H263.035V102.069H276.448V88.6553Z" fill="#252C4A"/>
<path d="M289.862 88.6553H276.448V102.069H289.862V88.6553Z" fill="#252C4A"/>
<path d="M303.276 88.6553H289.862V102.069C297.27 102.069 303.276 96.0635 303.276 88.6553Z" fill="#252C4A"/>
<path d="M155.724 108.776C155.724 107.213 155.724 102.069 155.724 102.069C155.724 102.069 160.29 102.069 162.431 102.069C164.103 102.069 169.138 102.069 169.138 102.069C169.138 102.069 169.138 106.744 169.138 108.776C169.138 112.48 166.135 115.483 162.431 115.483C158.727 115.483 155.724 112.48 155.724 108.776Z" fill="#252C4A"/>
<path d="M222.793 115.483V102.069H209.379C209.379 109.477 215.385 115.483 222.793 115.483Z" fill="#252C4A"/>
<path d="M222.793 102.069V115.483H236.207C236.207 108.074 230.201 102.069 222.793 102.069Z" fill="#252C4A"/>
<path d="M263.035 108.776C263.035 107.213 263.035 102.069 263.035 102.069C263.035 102.069 267.601 102.069 269.741 102.069C271.413 102.069 276.448 102.069 276.448 102.069C276.448 102.069 276.448 106.744 276.448 108.776C276.448 112.48 273.445 115.483 269.741 115.483C266.037 115.483 263.035 112.48 263.035 108.776Z" fill="#252C4A"/>
<path d="M316.69 108.776C316.69 110.339 316.69 115.483 316.69 115.483C316.69 115.483 312.124 115.483 309.983 115.482C308.311 115.483 303.276 115.482 303.276 115.482C303.276 115.482 303.276 110.808 303.276 108.776C303.276 105.072 306.279 102.069 309.983 102.069C313.687 102.069 316.69 105.072 316.69 108.776Z" fill="#252C4A"/>
<path d="M149.017 115.483C152.722 115.483 155.724 118.486 155.724 122.19C155.724 125.894 152.722 128.897 149.017 128.897C145.313 128.897 142.31 125.894 142.31 122.19C142.31 118.486 145.313 115.483 149.017 115.483Z" fill="#252C4A"/>
<path d="M175.845 115.483C179.549 115.483 182.552 118.486 182.552 122.19C182.552 125.894 179.549 128.897 175.845 128.897C172.141 128.897 169.138 125.894 169.138 122.19C169.138 118.486 172.141 115.483 175.845 115.483Z" fill="#252C4A"/>
<path d="M209.379 122.19C209.379 123.753 209.379 128.897 209.379 128.897C209.379 128.897 204.813 128.897 202.672 128.896C201 128.897 195.966 128.896 195.966 128.896C195.966 128.896 195.966 124.222 195.966 122.19C195.966 118.486 198.968 115.483 202.672 115.483C206.376 115.483 209.379 118.486 209.379 122.19Z" fill="#252C4A"/>
<path d="M236.207 115.483H222.793V128.897H236.207V115.483Z" fill="#252C4A"/>
<path d="M256.328 115.483C260.032 115.483 263.035 118.486 263.035 122.19C263.035 125.894 260.032 128.897 256.328 128.897C252.624 128.897 249.621 125.894 249.621 122.19C249.621 118.486 252.624 115.483 256.328 115.483Z" fill="#252C4A"/>
<path d="M283.155 115.483C286.86 115.483 289.862 118.486 289.862 122.19C289.862 125.894 286.86 128.897 283.155 128.897C279.451 128.897 276.448 125.894 276.448 122.19C276.448 118.486 279.451 115.483 283.155 115.483Z" fill="#252C4A"/>
<path d="M303.276 122.19C303.276 120.627 303.276 115.483 303.276 115.483C303.276 115.483 307.842 115.483 309.983 115.483C311.655 115.483 316.69 115.483 316.69 115.483C316.69 115.483 316.69 120.158 316.69 122.19C316.69 125.894 313.687 128.897 309.983 128.897C306.279 128.897 303.276 125.894 303.276 122.19Z" fill="#252C4A"/>
<path d="M169.138 135.604C169.138 137.167 169.138 142.31 169.138 142.31C169.138 142.31 164.572 142.31 162.431 142.31C160.759 142.31 155.724 142.31 155.724 142.31C155.724 142.31 155.724 137.636 155.724 135.603C155.724 131.899 158.727 128.897 162.431 128.897C166.135 128.897 169.138 131.899 169.138 135.604Z" fill="#252C4A"/>
<path d="M209.379 128.897H195.966V142.31H209.379V128.897Z" fill="#252C4A"/>
<path d="M236.207 128.897H222.793V142.31H236.207V128.897Z" fill="#252C4A"/>
<path d="M48.4139 149.017C48.4139 150.58 48.4139 155.724 48.4139 155.724C48.4139 155.724 43.848 155.724 41.707 155.724C40.035 155.724 35.0001 155.724 35.0001 155.724C35.0001 155.724 35.0001 151.049 35.0001 149.017C35.0003 145.313 38.0029 142.31 41.7069 142.31C45.4109 142.31 48.4139 145.313 48.4139 149.017Z" fill="#252C4A"/>
<path d="M81.9484 142.31C83.5116 142.31 88.6552 142.31 88.6552 142.31C88.6552 142.31 88.6552 146.876 88.6552 149.017C88.6552 150.689 88.6552 155.724 88.6552 155.724C88.6552 155.724 83.9814 155.724 81.9484 155.724C78.243 155.724 75.2415 152.72 75.2415 149.017C75.2415 145.314 78.243 142.31 81.9484 142.31Z" fill="#252C4A"/>
<path d="M102.069 142.31H88.6553V155.724H102.069V142.31Z" fill="#252C4A"/>
<path d="M115.483 142.31H102.069V155.724H115.483V142.31Z" fill="#252C4A"/>
<path d="M128.897 142.31H115.483V155.724H128.897V142.31Z" fill="#252C4A"/>
<path d="M142.31 142.31H128.897V155.724H142.31V142.31Z" fill="#252C4A"/>
<path d="M155.724 142.31H142.31V155.724H155.724V142.31Z" fill="#252C4A"/>
<path d="M169.138 142.31H155.724V155.724C163.132 155.724 169.138 149.719 169.138 142.31Z" fill="#252C4A"/>
<path d="M209.379 142.31H195.966V155.724H209.379V142.31Z" fill="#252C4A"/>
<path d="M222.793 142.31H209.379V155.724H222.793V142.31Z" fill="#252C4A"/>
<path d="M236.207 142.31H222.793V155.724H236.207V142.31Z" fill="#252C4A"/>
<path d="M249.621 142.31H236.207V155.724H249.621V142.31Z" fill="#252C4A"/>
<path d="M263.035 142.31H249.621V155.724H263.035V142.31Z" fill="#252C4A"/>
<path d="M263.035 142.31V155.724H276.448C276.448 148.316 270.443 142.31 263.035 142.31Z" fill="#252C4A"/>
<path d="M330.103 149.017C330.103 150.58 330.103 155.724 330.103 155.724C330.103 155.724 325.538 155.724 323.397 155.724C321.725 155.724 316.69 155.724 316.69 155.724C316.69 155.724 316.69 151.049 316.69 149.017C316.69 145.313 319.692 142.31 323.396 142.31C327.101 142.31 330.103 145.313 330.103 149.017Z" fill="#252C4A"/>
<path d="M370.345 149.017C370.345 150.58 370.345 155.724 370.345 155.724C370.345 155.724 365.779 155.724 363.638 155.724C361.966 155.724 356.931 155.724 356.931 155.724C356.931 155.724 356.931 151.049 356.931 149.017C356.931 145.313 359.934 142.31 363.638 142.31C367.342 142.31 370.345 145.313 370.345 149.017Z" fill="#252C4A"/>
<path d="M383.759 155.724H397.172V142.31C389.764 142.31 383.759 148.316 383.759 155.724Z" fill="#252C4A"/>
<path d="M410.586 142.31H397.172V155.724H410.586V142.31Z" fill="#252C4A"/>
<path d="M417.293 155.724C415.73 155.724 410.586 155.724 410.586 155.724C410.586 155.724 410.586 151.158 410.586 149.017C410.586 147.345 410.586 142.31 410.586 142.31C410.586 142.31 415.261 142.31 417.293 142.31C420.997 142.31 424 145.313 424 149.017C424 152.721 420.997 155.724 417.293 155.724Z" fill="#252C4A"/>
<path d="M35.0001 162.431C35.0001 160.868 35.0001 155.724 35.0001 155.724C35.0001 155.724 39.5662 155.724 41.707 155.724C43.379 155.724 48.4139 155.724 48.4139 155.724C48.4139 155.724 48.4139 160.399 48.4139 162.431C48.4139 166.135 45.4109 169.138 41.707 169.138C38.0029 169.138 35.0001 166.135 35.0001 162.431Z" fill="#252C4A"/>
<path d="M75.2415 162.431C75.2415 163.994 75.2415 169.138 75.2415 169.138C75.2415 169.138 70.6757 169.138 68.5347 169.138C66.8627 169.138 61.8278 169.138 61.8278 169.138C61.8278 169.138 61.8278 164.463 61.8278 162.431C61.8279 158.727 64.8305 155.724 68.5345 155.724C72.2386 155.724 75.2415 158.727 75.2415 162.431Z" fill="#252C4A"/>
<path d="M142.31 162.431C142.31 160.868 142.31 155.724 142.31 155.724C142.31 155.724 146.877 155.724 149.017 155.724C150.689 155.724 155.724 155.724 155.724 155.724C155.724 155.724 155.724 160.399 155.724 162.431C155.724 166.135 152.721 169.138 149.017 169.138C145.313 169.138 142.31 166.135 142.31 162.431Z" fill="#252C4A"/>
<path d="M195.966 162.431C195.966 160.868 195.966 155.724 195.966 155.724C195.966 155.724 200.532 155.724 202.672 155.724C204.344 155.724 209.379 155.724 209.379 155.724C209.379 155.724 209.379 160.399 209.379 162.431C209.379 166.135 206.376 169.138 202.672 169.138C198.968 169.138 195.966 166.135 195.966 162.431Z" fill="#252C4A"/>
<path d="M236.207 155.724H222.793V169.138H236.207V155.724Z" fill="#252C4A"/>
<path d="M276.448 155.724H263.035V169.138H276.448V155.724Z" fill="#252C4A"/>
<path d="M296.569 155.724C300.273 155.724 303.276 158.727 303.276 162.431C303.276 166.135 300.273 169.138 296.569 169.138C292.865 169.138 289.862 166.135 289.862 162.431C289.862 158.727 292.865 155.724 296.569 155.724Z" fill="#252C4A"/>
<path d="M330.103 155.724H316.69V169.138H330.103V155.724Z" fill="#252C4A"/>
<path d="M343.517 169.138H356.931V155.724C349.523 155.724 343.517 161.73 343.517 169.138Z" fill="#252C4A"/>
<path d="M370.345 155.724H356.931V169.138C364.339 169.138 370.345 163.132 370.345 155.724Z" fill="#252C4A"/>
<path d="M397.172 155.724H383.759V169.138H397.172V155.724Z" fill="#252C4A"/>
<path d="M410.586 155.724H397.172V169.138C404.581 169.138 410.586 163.132 410.586 155.724Z" fill="#252C4A"/>
<path d="M55.1207 169.138C56.684 169.138 61.8276 169.138 61.8276 169.138C61.8276 169.138 61.8276 173.704 61.8276 175.845C61.8276 177.516 61.8276 182.552 61.8276 182.552C61.8276 182.552 57.1537 182.552 55.1207 182.552C51.4153 182.552 48.4138 179.548 48.4138 175.845C48.4138 172.142 51.4153 169.138 55.1207 169.138Z" fill="#252C4A"/>
<path d="M75.2415 169.138H61.8278V182.552C69.236 182.552 75.2415 176.546 75.2415 169.138Z" fill="#252C4A"/>
<path d="M88.6553 182.552H102.069V169.138C94.6609 169.138 88.6553 175.144 88.6553 182.552Z" fill="#252C4A"/>
<path d="M115.483 169.138H102.069V182.552H115.483V169.138Z" fill="#252C4A"/>
<path d="M122.19 182.552C120.627 182.552 115.483 182.552 115.483 182.552C115.483 182.552 115.483 177.986 115.483 175.845C115.483 174.173 115.483 169.138 115.483 169.138C115.483 169.138 120.158 169.138 122.19 169.138C125.894 169.138 128.897 172.141 128.897 175.845C128.897 179.549 125.894 182.552 122.19 182.552Z" fill="#252C4A"/>
<path d="M155.724 182.552H169.138V169.138C161.73 169.138 155.724 175.144 155.724 182.552Z" fill="#252C4A"/>
<path d="M169.138 169.138V182.552H182.552C182.552 175.143 176.546 169.138 169.138 169.138Z" fill="#252C4A"/>
<path d="M236.207 169.138H222.793V182.552H236.207V169.138Z" fill="#252C4A"/>
<path d="M276.448 169.138H263.035V182.552H276.448V169.138Z" fill="#252C4A"/>
<path d="M283.155 182.552C281.592 182.552 276.448 182.552 276.448 182.552C276.448 182.552 276.448 177.986 276.448 175.845C276.448 174.173 276.448 169.138 276.448 169.138C276.448 169.138 281.123 169.138 283.155 169.138C286.859 169.138 289.862 172.141 289.862 175.845C289.862 179.549 286.859 182.552 283.155 182.552Z" fill="#252C4A"/>
<path d="M330.103 169.138H316.69V182.552H330.103V169.138Z" fill="#252C4A"/>
<path d="M343.517 175.845C343.517 174.282 343.517 169.138 343.517 169.138C343.517 169.138 348.083 169.138 350.224 169.138C351.896 169.138 356.931 169.138 356.931 169.138C356.931 169.138 356.931 173.813 356.931 175.845C356.931 179.549 353.928 182.552 350.224 182.552C346.52 182.552 343.517 179.549 343.517 175.845Z" fill="#252C4A"/>
<path d="M383.759 175.845C383.759 174.282 383.759 169.138 383.759 169.138C383.759 169.138 388.325 169.138 390.466 169.138C392.138 169.138 397.172 169.138 397.172 169.138C397.172 169.138 397.172 173.813 397.172 175.845C397.172 179.549 394.169 182.552 390.466 182.552C386.761 182.552 383.759 179.549 383.759 175.845Z" fill="#252C4A"/>
<path d="M75.2415 195.966H88.6552V182.552C81.2471 182.552 75.2415 188.557 75.2415 195.966Z" fill="#252C4A"/>
<path d="M102.069 182.552H88.6553V195.966C96.0635 195.966 102.069 189.96 102.069 182.552Z" fill="#252C4A"/>
<path d="M149.017 182.552C150.581 182.552 155.724 182.552 155.724 182.552C155.724 182.552 155.724 187.117 155.724 189.259C155.724 190.93 155.724 195.966 155.724 195.966C155.724 195.966 151.05 195.966 149.017 195.966C145.312 195.966 142.31 192.961 142.31 189.259C142.31 185.555 145.312 182.552 149.017 182.552Z" fill="#252C4A"/>
<path d="M169.138 182.552H155.724V195.966H169.138V182.552Z" fill="#252C4A"/>
<path d="M182.552 182.552H169.138V195.966H182.552V182.552Z" fill="#252C4A"/>
<path d="M236.207 182.552H222.793V195.966H236.207V182.552Z" fill="#252C4A"/>
<path d="M242.914 195.966C241.351 195.966 236.207 195.966 236.207 195.966C236.207 195.966 236.207 191.399 236.207 189.259C236.207 187.587 236.207 182.552 236.207 182.552C236.207 182.552 240.882 182.552 242.914 182.552C246.618 182.552 249.621 185.555 249.621 189.259C249.621 192.963 246.618 195.966 242.914 195.966Z" fill="#252C4A"/>
<path d="M263.035 189.259C263.035 187.695 263.035 182.552 263.035 182.552C263.035 182.552 267.601 182.552 269.741 182.552C271.413 182.552 276.448 182.552 276.448 182.552C276.448 182.552 276.448 187.227 276.448 189.259C276.448 192.963 273.445 195.966 269.741 195.966C266.037 195.966 263.035 192.963 263.035 189.259Z" fill="#252C4A"/>
<path d="M303.276 195.966H316.69V182.552C309.282 182.552 303.276 188.557 303.276 195.966Z" fill="#252C4A"/>
<path d="M330.103 182.552H316.69V195.966H330.103V182.552Z" fill="#252C4A"/>
<path d="M330.104 182.552V195.966H343.517C343.517 188.557 337.512 182.552 330.104 182.552Z" fill="#252C4A"/>
<path d="M377.052 182.552C380.756 182.552 383.759 185.555 383.759 189.259C383.759 192.963 380.756 195.966 377.052 195.966C373.348 195.966 370.345 192.963 370.345 189.259C370.345 185.555 373.348 182.552 377.052 182.552Z" fill="#252C4A"/>
<path d="M424 189.259C424 190.822 424 195.966 424 195.966C424 195.966 419.434 195.966 417.293 195.965C415.621 195.966 410.586 195.965 410.586 195.965C410.586 195.965 410.586 191.291 410.586 189.258C410.586 185.555 413.589 182.552 417.293 182.552C420.997 182.552 424 185.555 424 189.259Z" fill="#252C4A"/>
<path d="M41.707 195.966C43.2703 195.966 48.4139 195.966 48.4139 195.966C48.4139 195.966 48.4139 200.531 48.4139 202.672C48.4139 204.344 48.4139 209.379 48.4139 209.379C48.4139 209.379 43.74 209.379 41.707 209.379C38.0016 209.379 35.0001 206.375 35.0001 202.672C35.0001 198.969 38.0016 195.966 41.707 195.966Z" fill="#252C4A"/>
<path d="M61.8276 195.966H48.4138V209.379H61.8276V195.966Z" fill="#252C4A"/>
<path d="M75.2416 195.966H61.8278V209.379H75.2416V195.966Z" fill="#252C4A"/>
<path d="M88.6552 195.966H75.2415V209.379C82.6497 209.379 88.6552 203.374 88.6552 195.966Z" fill="#252C4A"/>
<path d="M122.19 195.966C125.894 195.966 128.897 198.968 128.897 202.672C128.897 206.377 125.894 209.379 122.19 209.379C118.486 209.379 115.483 206.377 115.483 202.672C115.483 198.968 118.486 195.966 122.19 195.966Z" fill="#252C4A"/>
<path d="M169.138 202.672C169.138 201.109 169.138 195.966 169.138 195.966C169.138 195.966 173.704 195.966 175.845 195.966C177.517 195.966 182.552 195.966 182.552 195.966C182.552 195.966 182.552 200.641 182.552 202.672C182.552 206.376 179.549 209.379 175.845 209.379C172.141 209.379 169.138 206.376 169.138 202.672Z" fill="#252C4A"/>
<path d="M195.966 209.379H209.379V195.966C201.971 195.966 195.966 201.971 195.966 209.379Z" fill="#252C4A"/>
<path d="M222.793 195.966H209.379V209.379H222.793V195.966Z" fill="#252C4A"/>
<path d="M236.207 195.966H222.793V209.379C230.201 209.379 236.207 203.374 236.207 195.966Z" fill="#252C4A"/>
<path d="M289.862 202.672C289.862 204.236 289.862 209.379 289.862 209.379C289.862 209.379 285.296 209.379 283.155 209.379C281.483 209.379 276.448 209.379 276.448 209.379C276.448 209.379 276.448 204.705 276.448 202.672C276.449 198.968 279.451 195.966 283.155 195.966C286.859 195.966 289.862 198.968 289.862 202.672Z" fill="#252C4A"/>
<path d="M303.276 202.672C303.276 201.109 303.276 195.966 303.276 195.966C303.276 195.966 307.842 195.966 309.983 195.966C311.655 195.966 316.69 195.966 316.69 195.966C316.69 195.966 316.69 200.641 316.69 202.672C316.69 206.376 313.687 209.379 309.983 209.379C306.279 209.379 303.276 206.376 303.276 202.672Z" fill="#252C4A"/>
<path d="M343.517 195.966H330.104V209.379H343.517V195.966Z" fill="#252C4A"/>
<path d="M350.224 209.379C348.661 209.379 343.517 209.379 343.517 209.379C343.517 209.379 343.517 204.813 343.517 202.672C343.517 201 343.517 195.966 343.517 195.966C343.517 195.966 348.192 195.966 350.224 195.966C353.928 195.966 356.931 198.968 356.931 202.672C356.931 206.376 353.928 209.379 350.224 209.379Z" fill="#252C4A"/>
<path d="M424 195.966H410.586V209.379H424V195.966Z" fill="#252C4A"/>
<path d="M61.8278 216.086C61.8278 214.523 61.8278 209.379 61.8278 209.379C61.8278 209.379 66.3938 209.379 68.5347 209.379C70.2067 209.379 75.2415 209.379 75.2415 209.379C75.2415 209.379 75.2415 214.054 75.2415 216.086C75.2415 219.79 72.2386 222.793 68.5347 222.793C64.8305 222.793 61.8278 219.79 61.8278 216.086Z" fill="#252C4A"/>
<path d="M189.259 209.379C190.822 209.379 195.966 209.379 195.966 209.379C195.966 209.379 195.966 213.945 195.966 216.086C195.966 217.758 195.966 222.793 195.966 222.793C195.966 222.793 191.292 222.793 189.259 222.793C185.553 222.793 182.552 219.789 182.552 216.086C182.552 212.383 185.553 209.379 189.259 209.379Z" fill="#252C4A"/>
<path d="M209.379 209.379H195.966V222.793C203.374 222.793 209.379 216.788 209.379 209.379Z" fill="#252C4A"/>
<path d="M263.035 222.793H276.448V209.379C269.04 209.379 263.035 215.385 263.035 222.793Z" fill="#252C4A"/>
<path d="M289.862 209.379H276.448V222.793C283.857 222.793 289.862 216.788 289.862 209.379Z" fill="#252C4A"/>
<path d="M316.69 222.793H330.103V209.379C322.695 209.379 316.69 215.385 316.69 222.793Z" fill="#252C4A"/>
<path d="M343.517 209.379H330.104V222.793H343.517V209.379Z" fill="#252C4A"/>
<path d="M363.638 209.379C365.201 209.379 370.345 209.379 370.345 209.379C370.345 209.379 370.345 213.945 370.345 216.086C370.345 217.758 370.345 222.793 370.345 222.793C370.345 222.793 365.671 222.793 363.638 222.793C359.933 222.793 356.931 219.789 356.931 216.086C356.931 212.383 359.933 209.379 363.638 209.379Z" fill="#252C4A"/>
<path d="M383.759 209.379H370.345V222.793H383.759V209.379Z" fill="#252C4A"/>
<path d="M397.172 209.379H383.759V222.793H397.172V209.379Z" fill="#252C4A"/>
<path d="M410.586 209.379H397.172V222.793H410.586V209.379Z" fill="#252C4A"/>
<path d="M424 209.379H410.586V222.793H424V209.379Z" fill="#252C4A"/>
<path d="M61.8276 229.5C61.8276 231.063 61.8276 236.207 61.8276 236.207C61.8276 236.207 57.2617 236.207 55.1207 236.207C53.4487 236.207 48.4138 236.207 48.4138 236.207C48.4138 236.207 48.4138 231.532 48.4138 229.5C48.414 225.796 51.4166 222.793 55.1206 222.793C58.8246 222.793 61.8276 225.796 61.8276 229.5Z" fill="#252C4A"/>
<path d="M108.776 222.793C110.339 222.793 115.483 222.793 115.483 222.793C115.483 222.793 115.483 227.359 115.483 229.5C115.483 231.172 115.483 236.207 115.483 236.207C115.483 236.207 110.809 236.207 108.776 236.207C105.07 236.207 102.069 233.203 102.069 229.5C102.069 225.797 105.07 222.793 108.776 222.793Z" fill="#252C4A"/>
<path d="M128.897 222.793H115.483V236.207H128.897V222.793Z" fill="#252C4A"/>
<path d="M142.31 222.793H128.897V236.207H142.31V222.793Z" fill="#252C4A"/>
<path d="M149.017 236.207C147.454 236.207 142.31 236.207 142.31 236.207C142.31 236.207 142.31 231.641 142.31 229.5C142.31 227.828 142.31 222.793 142.31 222.793C142.31 222.793 146.985 222.793 149.017 222.793C152.721 222.793 155.724 225.796 155.724 229.5C155.724 233.204 152.721 236.207 149.017 236.207Z" fill="#252C4A"/>
<path d="M182.552 229.5C182.552 231.063 182.552 236.207 182.552 236.207C182.552 236.207 177.986 236.207 175.845 236.207C174.173 236.207 169.138 236.207 169.138 236.207C169.138 236.207 169.138 231.532 169.138 229.5C169.138 225.796 172.141 222.793 175.845 222.793C179.549 222.793 182.552 225.796 182.552 229.5Z" fill="#252C4A"/>
<path d="M222.793 236.207H236.207V222.793C228.799 222.793 222.793 228.799 222.793 236.207Z" fill="#252C4A"/>
<path d="M242.914 236.207C241.351 236.207 236.207 236.207 236.207 236.207C236.207 236.207 236.207 231.641 236.207 229.5C236.207 227.828 236.207 222.793 236.207 222.793C236.207 222.793 240.882 222.793 242.914 222.793C246.618 222.793 249.621 225.796 249.621 229.5C249.621 233.204 246.618 236.207 242.914 236.207Z" fill="#252C4A"/>
<path d="M263.035 229.5C263.035 227.937 263.035 222.793 263.035 222.793C263.035 222.793 267.601 222.793 269.741 222.793C271.413 222.793 276.448 222.793 276.448 222.793C276.448 222.793 276.448 227.468 276.448 229.5C276.448 233.204 273.445 236.207 269.741 236.207C266.037 236.207 263.035 233.204 263.035 229.5Z" fill="#252C4A"/>
<path d="M296.569 222.793C298.132 222.793 303.276 222.793 303.276 222.793C303.276 222.793 303.276 227.359 303.276 229.5C303.276 231.172 303.276 236.207 303.276 236.207C303.276 236.207 298.602 236.207 296.569 236.207C292.864 236.207 289.862 233.203 289.862 229.5C289.862 225.797 292.864 222.793 296.569 222.793Z" fill="#252C4A"/>
<path d="M316.69 222.793H303.276V236.207H316.69V222.793Z" fill="#252C4A"/>
<path d="M330.103 222.793H316.69V236.207H330.103V222.793Z" fill="#252C4A"/>
<path d="M343.517 222.793H330.104V236.207H343.517V222.793Z" fill="#252C4A"/>
<path d="M343.517 222.793V236.207H356.931C356.931 228.799 350.925 222.793 343.517 222.793Z" fill="#252C4A"/>
<path d="M397.172 222.793H383.759V236.207H397.172V222.793Z" fill="#252C4A"/>
<path d="M424 222.793H410.586V236.207H424V222.793Z" fill="#252C4A"/>
<path d="M41.707 236.207C43.2703 236.207 48.4139 236.207 48.4139 236.207C48.4139 236.207 48.4139 240.772 48.4139 242.914C48.4139 244.585 48.4139 249.621 48.4139 249.621C48.4139 249.621 43.74 249.621 41.707 249.621C38.0016 249.621 35.0001 246.617 35.0001 242.914C35.0001 239.211 38.0016 236.207 41.707 236.207Z" fill="#252C4A"/>
<path d="M61.8276 236.207H48.4138V249.621C55.822 249.621 61.8276 243.615 61.8276 236.207Z" fill="#252C4A"/>
<path d="M102.069 242.914C102.069 244.477 102.069 249.621 102.069 249.621C102.069 249.621 97.5032 249.621 95.3622 249.62C93.6902 249.621 88.6553 249.62 88.6553 249.62C88.6553 249.62 88.6553 244.946 88.6553 242.914C88.6554 239.21 91.6581 236.207 95.362 236.207C99.0661 236.207 102.069 239.21 102.069 242.914Z" fill="#252C4A"/>
<path d="M128.897 242.914C128.897 241.351 128.897 236.207 128.897 236.207C128.897 236.207 133.463 236.207 135.604 236.207C137.276 236.207 142.31 236.207 142.31 236.207C142.31 236.207 142.31 240.882 142.31 242.914C142.31 246.618 139.307 249.621 135.604 249.621C131.899 249.621 128.897 246.618 128.897 242.914Z" fill="#252C4A"/>
<path d="M162.431 236.207C163.994 236.207 169.138 236.207 169.138 236.207C169.138 236.207 169.138 240.772 169.138 242.914C169.138 244.585 169.138 249.621 169.138 249.621C169.138 249.621 164.464 249.621 162.431 249.621C158.726 249.621 155.724 246.617 155.724 242.914C155.724 239.211 158.726 236.207 162.431 236.207Z" fill="#252C4A"/>
<path d="M182.552 236.207H169.138V249.621C176.546 249.621 182.552 243.615 182.552 236.207Z" fill="#252C4A"/>
<path d="M216.086 236.207C217.65 236.207 222.793 236.207 222.793 236.207C222.793 236.207 222.793 240.772 222.793 242.914C222.793 244.585 222.793 249.621 222.793 249.621C222.793 249.621 218.119 249.621 216.086 249.621C212.381 249.621 209.379 246.617 209.379 242.914C209.379 239.211 212.381 236.207 216.086 236.207Z" fill="#252C4A"/>
<path d="M236.207 236.207H222.793V249.621C230.201 249.621 236.207 243.615 236.207 236.207Z" fill="#252C4A"/>
<path d="M256.328 236.207C260.032 236.207 263.035 239.21 263.035 242.914C263.035 246.618 260.032 249.621 256.328 249.621C252.624 249.621 249.621 246.618 249.621 242.914C249.621 239.21 252.624 236.207 256.328 236.207Z" fill="#252C4A"/>
<path d="M283.155 236.207C286.86 236.207 289.862 239.21 289.862 242.914C289.862 246.618 286.86 249.621 283.155 249.621C279.451 249.621 276.448 246.618 276.448 242.914C276.448 239.21 279.451 236.207 283.155 236.207Z" fill="#252C4A"/>
<path d="M356.931 249.621V236.207H343.517C343.517 243.615 349.523 249.621 356.931 249.621Z" fill="#252C4A"/>
<path d="M363.638 249.621C362.075 249.621 356.931 249.621 356.931 249.621C356.931 249.621 356.931 245.054 356.931 242.914C356.931 241.242 356.931 236.207 356.931 236.207C356.931 236.207 361.606 236.207 363.638 236.207C367.342 236.207 370.345 239.21 370.345 242.914C370.345 246.618 367.342 249.621 363.638 249.621Z" fill="#252C4A"/>
<path d="M383.759 242.914C383.759 241.351 383.759 236.207 383.759 236.207C383.759 236.207 388.325 236.207 390.466 236.207C392.138 236.207 397.172 236.207 397.172 236.207C397.172 236.207 397.172 240.882 397.172 242.914C397.172 246.618 394.169 249.621 390.466 249.621C386.761 249.621 383.759 246.618 383.759 242.914Z" fill="#252C4A"/>
<path d="M410.586 242.914C410.586 241.351 410.586 236.207 410.586 236.207C410.586 236.207 415.152 236.207 417.293 236.207C418.965 236.207 424 236.207 424 236.207C424 236.207 424 240.882 424 242.914C424 246.618 420.997 249.621 417.293 249.621C413.589 249.621 410.586 246.618 410.586 242.914Z" fill="#252C4A"/>
<path d="M88.6553 256.328C88.6553 254.764 88.6553 249.621 88.6553 249.621C88.6553 249.621 93.2214 249.621 95.3622 249.621C97.0342 249.621 102.069 249.621 102.069 249.621C102.069 249.621 102.069 254.296 102.069 256.328C102.069 260.032 99.0661 263.035 95.3622 263.035C91.6581 263.035 88.6553 260.032 88.6553 256.328Z" fill="#252C4A"/>
<path d="M122.19 249.621C125.894 249.621 128.897 252.624 128.897 256.328C128.897 260.032 125.894 263.035 122.19 263.035C118.486 263.035 115.483 260.032 115.483 256.328C115.483 252.624 118.486 249.621 122.19 249.621Z" fill="#252C4A"/>
<path d="M202.672 249.621C206.377 249.621 209.379 252.624 209.379 256.328C209.379 260.032 206.377 263.035 202.672 263.035C198.968 263.035 195.966 260.032 195.966 256.328C195.966 252.624 198.968 249.621 202.672 249.621Z" fill="#252C4A"/>
<path d="M242.914 249.621C246.618 249.621 249.621 252.624 249.621 256.328C249.621 260.032 246.618 263.035 242.914 263.035C239.21 263.035 236.207 260.032 236.207 256.328C236.207 252.624 239.21 249.621 242.914 249.621Z" fill="#252C4A"/>
<path d="M289.862 263.035H303.276V249.621C295.868 249.621 289.862 255.626 289.862 263.035Z" fill="#252C4A"/>
<path d="M309.983 263.035C308.42 263.035 303.276 263.035 303.276 263.035C303.276 263.035 303.276 258.468 303.276 256.328C303.276 254.656 303.276 249.621 303.276 249.621C303.276 249.621 307.951 249.621 309.983 249.621C313.687 249.621 316.69 252.624 316.69 256.328C316.69 260.032 313.687 263.035 309.983 263.035Z" fill="#252C4A"/>
<path d="M377.052 249.621C380.756 249.621 383.759 252.624 383.759 256.328C383.759 260.032 380.756 263.035 377.052 263.035C373.348 263.035 370.345 260.032 370.345 256.328C370.345 252.624 373.348 249.621 377.052 249.621Z" fill="#252C4A"/>
<path d="M48.4139 269.741C48.4139 271.305 48.4139 276.448 48.4139 276.448C48.4139 276.448 43.848 276.448 41.707 276.448C40.035 276.448 35.0001 276.448 35.0001 276.448C35.0001 276.448 35.0001 271.774 35.0001 269.741C35.0003 266.037 38.0029 263.035 41.7069 263.035C45.4109 263.035 48.4139 266.037 48.4139 269.741Z" fill="#252C4A"/>
<path d="M81.9484 263.035C85.6526 263.035 88.6552 266.037 88.6552 269.741C88.6552 273.446 85.6526 276.448 81.9484 276.448C78.2443 276.448 75.2415 273.446 75.2415 269.741C75.2415 266.037 78.2443 263.035 81.9484 263.035Z" fill="#252C4A"/>
<path d="M149.017 263.035C150.581 263.035 155.724 263.035 155.724 263.035C155.724 263.035 155.724 267.6 155.724 269.741C155.724 271.413 155.724 276.448 155.724 276.448C155.724 276.448 151.05 276.448 149.017 276.448C145.312 276.448 142.31 273.444 142.31 269.741C142.31 266.038 145.312 263.035 149.017 263.035Z" fill="#252C4A"/>
<path d="M155.724 263.035V276.448H169.138C169.138 269.04 163.132 263.035 155.724 263.035Z" fill="#252C4A"/>
<path d="M269.741 263.035C271.305 263.035 276.448 263.035 276.448 263.035C276.448 263.035 276.448 267.6 276.448 269.741C276.448 271.413 276.448 276.448 276.448 276.448C276.448 276.448 271.774 276.448 269.741 276.448C266.036 276.448 263.035 273.444 263.035 269.741C263.035 266.038 266.036 263.035 269.741 263.035Z" fill="#252C4A"/>
<path d="M289.862 263.035H276.448V276.448H289.862V263.035Z" fill="#252C4A"/>
<path d="M303.276 263.035H289.862V276.448H303.276V263.035Z" fill="#252C4A"/>
<path d="M363.638 263.035C367.342 263.035 370.345 266.037 370.345 269.741C370.345 273.446 367.342 276.448 363.638 276.448C359.934 276.448 356.931 273.446 356.931 269.741C356.931 266.037 359.934 263.035 363.638 263.035Z" fill="#252C4A"/>
<path d="M390.466 263.035C392.029 263.035 397.172 263.035 397.172 263.035C397.172 263.035 397.172 267.6 397.172 269.741C397.172 271.413 397.172 276.448 397.172 276.448C397.172 276.448 392.499 276.448 390.466 276.448C386.76 276.448 383.759 273.444 383.759 269.741C383.759 266.038 386.76 263.035 390.466 263.035Z" fill="#252C4A"/>
<path d="M403.879 276.448C402.316 276.448 397.172 276.448 397.172 276.448C397.172 276.448 397.172 271.882 397.172 269.741C397.172 268.069 397.172 263.035 397.172 263.035C397.172 263.035 401.847 263.035 403.879 263.035C407.583 263.035 410.586 266.037 410.586 269.741C410.586 273.445 407.583 276.448 403.879 276.448Z" fill="#252C4A"/>
<path d="M48.4139 276.448H35.0001V289.862H48.4139V276.448Z" fill="#252C4A"/>
<path d="M61.8276 276.448H48.4138V289.862H61.8276V276.448Z" fill="#252C4A"/>
<path d="M68.5347 289.862C66.9714 289.862 61.8278 289.862 61.8278 289.862C61.8278 289.862 61.8278 285.296 61.8278 283.155C61.8278 281.483 61.8278 276.448 61.8278 276.448C61.8278 276.448 66.5028 276.448 68.5347 276.448C72.2386 276.448 75.2415 279.451 75.2415 283.155C75.2415 286.859 72.2386 289.862 68.5347 289.862Z" fill="#252C4A"/>
<path d="M122.19 276.448C123.753 276.448 128.897 276.448 128.897 276.448C128.897 276.448 128.897 281.014 128.897 283.155C128.897 284.827 128.897 289.862 128.897 289.862C128.897 289.862 124.223 289.862 122.19 289.862C118.484 289.862 115.483 286.858 115.483 283.155C115.483 279.452 118.484 276.448 122.19 276.448Z" fill="#252C4A"/>
<path d="M128.897 276.448V289.862H142.31C142.31 282.454 136.305 276.448 128.897 276.448Z" fill="#252C4A"/>
<path d="M169.138 276.448H155.724V289.862H169.138V276.448Z" fill="#252C4A"/>
<path d="M169.138 276.448V289.862H182.552C182.552 282.454 176.546 276.448 169.138 276.448Z" fill="#252C4A"/>
<path d="M209.379 289.862H222.793V276.448C215.385 276.448 209.379 282.454 209.379 289.862Z" fill="#252C4A"/>
<path d="M229.5 289.862C227.937 289.862 222.793 289.862 222.793 289.862C222.793 289.862 222.793 285.296 222.793 283.155C222.793 281.483 222.793 276.448 222.793 276.448C222.793 276.448 227.468 276.448 229.5 276.448C233.204 276.448 236.207 279.451 236.207 283.155C236.207 286.859 233.204 289.862 229.5 289.862Z" fill="#252C4A"/>
<path d="M263.035 283.155C263.035 284.718 263.035 289.862 263.035 289.862C263.035 289.862 258.469 289.862 256.328 289.862C254.656 289.862 249.621 289.862 249.621 289.862C249.621 289.862 249.621 285.187 249.621 283.155C249.621 279.451 252.624 276.448 256.327 276.448C260.032 276.448 263.035 279.451 263.035 283.155Z" fill="#252C4A"/>
<path d="M289.862 289.862V276.448H276.448C276.448 283.857 282.454 289.862 289.862 289.862Z" fill="#252C4A"/>
<path d="M303.276 276.448H289.862V289.862H303.276V276.448Z" fill="#252C4A"/>
<path d="M316.69 289.862H330.103V276.448C322.695 276.448 316.69 282.454 316.69 289.862Z" fill="#252C4A"/>
<path d="M330.104 276.448V289.862H343.517C343.517 282.454 337.512 276.448 330.104 276.448Z" fill="#252C4A"/>
<path d="M383.759 283.155C383.759 284.718 383.759 289.862 383.759 289.862C383.759 289.862 379.193 289.862 377.052 289.862C375.38 289.862 370.345 289.862 370.345 289.862C370.345 289.862 370.345 285.187 370.345 283.155C370.345 279.451 373.348 276.448 377.052 276.448C380.756 276.448 383.759 279.451 383.759 283.155Z" fill="#252C4A"/>
<path d="M417.293 276.448C420.997 276.448 424 279.451 424 283.155C424 286.86 420.997 289.862 417.293 289.862C413.589 289.862 410.586 286.86 410.586 283.155C410.586 279.451 413.589 276.448 417.293 276.448Z" fill="#252C4A"/>
<path d="M48.4139 289.862H35.0001V303.276H48.4139V289.862Z" fill="#252C4A"/>
<path d="M61.8276 289.862H48.4138V303.276H61.8276V289.862Z" fill="#252C4A"/>
<path d="M95.3622 289.862C96.9254 289.862 102.069 289.862 102.069 289.862C102.069 289.862 102.069 294.428 102.069 296.569C102.069 298.24 102.069 303.276 102.069 303.276C102.069 303.276 97.3952 303.276 95.3622 303.276C91.6568 303.276 88.6553 300.272 88.6553 296.569C88.6553 292.866 91.6568 289.862 95.3622 289.862Z" fill="#252C4A"/>
<path d="M102.069 289.862V303.276H115.483C115.483 295.867 109.477 289.862 102.069 289.862Z" fill="#252C4A"/>
<path d="M142.31 303.276V289.862H128.897C128.897 297.27 134.902 303.276 142.31 303.276Z" fill="#252C4A"/>
<path d="M155.724 289.862H142.31V303.276H155.724V289.862Z" fill="#252C4A"/>
<path d="M169.138 289.862H155.724V303.276H169.138V289.862Z" fill="#252C4A"/>
<path d="M182.552 289.862H169.138V303.276H182.552V289.862Z" fill="#252C4A"/>
<path d="M189.259 303.276C187.695 303.276 182.552 303.276 182.552 303.276C182.552 303.276 182.552 298.71 182.552 296.569C182.552 294.897 182.552 289.862 182.552 289.862C182.552 289.862 187.227 289.862 189.259 289.862C192.963 289.862 195.966 292.865 195.966 296.569C195.966 300.273 192.963 303.276 189.259 303.276Z" fill="#252C4A"/>
<path d="M222.793 289.862H209.379V303.276H222.793V289.862Z" fill="#252C4A"/>
<path d="M242.914 289.862C244.477 289.862 249.621 289.862 249.621 289.862C249.621 289.862 249.621 294.428 249.621 296.569C249.621 298.24 249.621 303.276 249.621 303.276C249.621 303.276 244.947 303.276 242.914 303.276C239.208 303.276 236.207 300.272 236.207 296.569C236.207 292.866 239.208 289.862 242.914 289.862Z" fill="#252C4A"/>
<path d="M263.035 289.862H249.621V303.276C257.029 303.276 263.035 297.27 263.035 289.862Z" fill="#252C4A"/>
<path d="M303.276 289.862H289.862V303.276H303.276V289.862Z" fill="#252C4A"/>
<path d="M330.103 289.862H316.69V303.276H330.103V289.862Z" fill="#252C4A"/>
<path d="M343.517 289.862H330.104V303.276H343.517V289.862Z" fill="#252C4A"/>
<path d="M356.931 289.862H343.517V303.276H356.931V289.862Z" fill="#252C4A"/>
<path d="M370.345 289.862H356.931V303.276H370.345V289.862Z" fill="#252C4A"/>
<path d="M383.759 289.862H370.345V303.276H383.759V289.862Z" fill="#252C4A"/>
<path d="M383.759 289.862V303.276H397.172C397.172 295.867 391.167 289.862 383.759 289.862Z" fill="#252C4A"/>
<path d="M48.4139 316.69V303.276H35.0001C35.0001 310.684 41.0056 316.69 48.4139 316.69Z" fill="#252C4A"/>
<path d="M61.8276 303.276H48.4138V316.69H61.8276V303.276Z" fill="#252C4A"/>
<path d="M68.5347 316.69C66.9714 316.69 61.8278 316.69 61.8278 316.69C61.8278 316.69 61.8278 312.123 61.8278 309.983C61.8278 308.311 61.8278 303.276 61.8278 303.276C61.8278 303.276 66.5028 303.276 68.5347 303.276C72.2386 303.276 75.2415 306.279 75.2415 309.983C75.2415 313.687 72.2386 316.69 68.5347 316.69Z" fill="#252C4A"/>
<path d="M115.483 316.69V303.276H102.069C102.069 310.684 108.074 316.69 115.483 316.69Z" fill="#252C4A"/>
<path d="M122.19 316.69C120.627 316.69 115.483 316.69 115.483 316.69C115.483 316.69 115.483 312.123 115.483 309.983C115.483 308.311 115.483 303.276 115.483 303.276C115.483 303.276 120.158 303.276 122.19 303.276C125.894 303.276 128.897 306.279 128.897 309.983C128.897 313.687 125.894 316.69 122.19 316.69Z" fill="#252C4A"/>
<path d="M169.138 316.69V303.276H155.724C155.724 310.684 161.73 316.69 169.138 316.69Z" fill="#252C4A"/>
<path d="M182.552 303.276H169.138V316.69C176.546 316.69 182.552 310.684 182.552 303.276Z" fill="#252C4A"/>
<path d="M202.672 303.276C204.236 303.276 209.379 303.276 209.379 303.276C209.379 303.276 209.379 307.841 209.379 309.983C209.379 311.654 209.379 316.69 209.379 316.69C209.379 316.69 204.705 316.69 202.672 316.69C198.967 316.69 195.966 313.686 195.966 309.983C195.966 306.28 198.967 303.276 202.672 303.276Z" fill="#252C4A"/>
<path d="M222.793 303.276H209.379V316.69H222.793V303.276Z" fill="#252C4A"/>
<path d="M276.448 309.983C276.448 311.546 276.448 316.69 276.448 316.69C276.448 316.69 271.882 316.69 269.741 316.689C268.069 316.69 263.035 316.689 263.035 316.689C263.035 316.689 263.035 312.015 263.035 309.983C263.035 306.279 266.037 303.276 269.741 303.276C273.445 303.276 276.448 306.279 276.448 309.983Z" fill="#252C4A"/>
<path d="M303.276 316.69V303.276H289.862C289.862 310.684 295.867 316.69 303.276 316.69Z" fill="#252C4A"/>
<path d="M316.69 303.276H303.276V316.69H316.69V303.276Z" fill="#252C4A"/>
<path d="M330.103 303.276H316.69V316.69H330.103V303.276Z" fill="#252C4A"/>
<path d="M343.517 303.276H330.104V316.69H343.517V303.276Z" fill="#252C4A"/>
<path d="M356.931 303.276H343.517V316.69H356.931V303.276Z" fill="#252C4A"/>
<path d="M370.345 303.276H356.931V316.69H370.345V303.276Z" fill="#252C4A"/>
<path d="M383.759 303.276H370.345V316.69H383.759V303.276Z" fill="#252C4A"/>
<path d="M397.172 303.276H383.759V316.69H397.172V303.276Z" fill="#252C4A"/>
<path d="M403.879 316.69C402.316 316.69 397.172 316.69 397.172 316.69C397.172 316.69 397.172 312.123 397.172 309.983C397.172 308.311 397.172 303.276 397.172 303.276C397.172 303.276 401.847 303.276 403.879 303.276C407.583 303.276 410.586 306.279 410.586 309.983C410.586 313.687 407.583 316.69 403.879 316.69Z" fill="#252C4A"/>
<path d="M155.724 323.397C155.724 324.96 155.724 330.103 155.724 330.103C155.724 330.103 151.158 330.103 149.017 330.103C147.345 330.103 142.31 330.103 142.31 330.103C142.31 330.103 142.31 325.429 142.31 323.396C142.311 319.693 145.313 316.69 149.017 316.69C152.721 316.69 155.724 319.693 155.724 323.397Z" fill="#252C4A"/>
<path d="M189.259 316.69C192.963 316.69 195.966 319.693 195.966 323.397C195.966 327.101 192.963 330.103 189.259 330.103C185.555 330.103 182.552 327.101 182.552 323.397C182.552 319.693 185.555 316.69 189.259 316.69Z" fill="#252C4A"/>
<path d="M222.793 316.69H209.379V330.103H222.793V316.69Z" fill="#252C4A"/>
<path d="M249.621 330.103H263.035V316.69C255.626 316.69 249.621 322.695 249.621 330.103Z" fill="#252C4A"/>
<path d="M276.448 316.69H263.035V330.103H276.448V316.69Z" fill="#252C4A"/>
<path d="M283.155 330.103C281.592 330.103 276.448 330.103 276.448 330.103C276.448 330.103 276.448 325.537 276.448 323.397C276.448 321.725 276.448 316.69 276.448 316.69C276.448 316.69 281.123 316.69 283.155 316.69C286.859 316.69 289.862 319.692 289.862 323.397C289.862 327.101 286.859 330.103 283.155 330.103Z" fill="#252C4A"/>
<path d="M316.69 316.69H303.276V330.103H316.69V316.69Z" fill="#252C4A"/>
<path d="M370.345 316.69H356.931V330.103H370.345V316.69Z" fill="#252C4A"/>
<path d="M383.759 316.69H370.345V330.103H383.759V316.69Z" fill="#252C4A"/>
<path d="M155.724 330.104H142.31V343.517H155.724V330.104Z" fill="#252C4A"/>
<path d="M222.793 330.104H209.379V343.517H222.793V330.104Z" fill="#252C4A"/>
<path d="M242.914 330.104C244.477 330.104 249.621 330.104 249.621 330.104C249.621 330.104 249.621 334.669 249.621 336.81C249.621 338.482 249.621 343.517 249.621 343.517C249.621 343.517 244.947 343.517 242.914 343.517C239.208 343.517 236.207 340.513 236.207 336.81C236.207 333.107 239.208 330.104 242.914 330.104Z" fill="#252C4A"/>
<path d="M263.035 330.104H249.621V343.517H263.035V330.104Z" fill="#252C4A"/>
<path d="M289.862 343.517H303.276V330.104C295.868 330.104 289.862 336.109 289.862 343.517Z" fill="#252C4A"/>
<path d="M316.69 330.104H303.276V343.517H316.69V330.104Z" fill="#252C4A"/>
<path d="M336.81 330.104C340.515 330.104 343.517 333.106 343.517 336.81C343.517 340.515 340.515 343.517 336.81 343.517C333.106 343.517 330.104 340.515 330.104 336.81C330.104 333.106 333.106 330.104 336.81 330.104Z" fill="#252C4A"/>
<path d="M370.345 330.104H356.931V343.517H370.345V330.104Z" fill="#252C4A"/>
<path d="M383.759 330.104H370.345V343.517C377.753 343.517 383.759 337.512 383.759 330.104Z" fill="#252C4A"/>
<path d="M155.724 343.517H142.31V356.931H155.724V343.517Z" fill="#252C4A"/>
<path d="M169.138 343.517H155.724V356.931H169.138V343.517Z" fill="#252C4A"/>
<path d="M175.845 356.931C174.282 356.931 169.138 356.931 169.138 356.931C169.138 356.931 169.138 352.365 169.138 350.224C169.138 348.552 169.138 343.517 169.138 343.517C169.138 343.517 173.813 343.517 175.845 343.517C179.549 343.517 182.552 346.52 182.552 350.224C182.552 353.928 179.549 356.931 175.845 356.931Z" fill="#252C4A"/>
<path d="M195.966 356.931H209.379V343.517C201.971 343.517 195.966 349.523 195.966 356.931Z" fill="#252C4A"/>
<path d="M222.793 343.517H209.379V356.931H222.793V343.517Z" fill="#252C4A"/>
<path d="M263.035 343.517H249.621V356.931H263.035V343.517Z" fill="#252C4A"/>
<path d="M269.741 356.931C268.178 356.931 263.035 356.931 263.035 356.931C263.035 356.931 263.035 352.365 263.035 350.224C263.035 348.552 263.035 343.517 263.035 343.517C263.035 343.517 267.71 343.517 269.741 343.517C273.445 343.517 276.448 346.52 276.448 350.224C276.448 353.928 273.445 356.931 269.741 356.931Z" fill="#252C4A"/>
<path d="M303.276 343.517H289.862V356.931H303.276V343.517Z" fill="#252C4A"/>
<path d="M316.69 343.517H303.276V356.931H316.69V343.517Z" fill="#252C4A"/>
<path d="M370.345 343.517H356.931V356.931H370.345V343.517Z" fill="#252C4A"/>
<path d="M403.879 343.517C405.443 343.517 410.586 343.517 410.586 343.517C410.586 343.517 410.586 348.083 410.586 350.224C410.586 351.896 410.586 356.931 410.586 356.931C410.586 356.931 405.912 356.931 403.879 356.931C400.174 356.931 397.172 353.927 397.172 350.224C397.172 346.521 400.174 343.517 403.879 343.517Z" fill="#252C4A"/>
<path d="M417.293 356.931C415.73 356.931 410.586 356.931 410.586 356.931C410.586 356.931 410.586 352.365 410.586 350.224C410.586 348.552 410.586 343.517 410.586 343.517C410.586 343.517 415.261 343.517 417.293 343.517C420.997 343.517 424 346.52 424 350.224C424 353.928 420.997 356.931 417.293 356.931Z" fill="#252C4A"/>
<path d="M155.724 356.931H142.31V370.345H155.724V356.931Z" fill="#252C4A"/>
<path d="M189.259 356.931C190.822 356.931 195.966 356.931 195.966 356.931C195.966 356.931 195.966 361.497 195.966 363.638C195.966 365.309 195.966 370.345 195.966 370.345C195.966 370.345 191.292 370.345 189.259 370.345C185.553 370.345 182.552 367.341 182.552 363.638C182.552 359.935 185.553 356.931 189.259 356.931Z" fill="#252C4A"/>
<path d="M209.379 356.931H195.966V370.345H209.379V356.931Z" fill="#252C4A"/>
<path d="M222.793 356.931H209.379V370.345H222.793V356.931Z" fill="#252C4A"/>
<path d="M242.914 356.931C244.477 356.931 249.621 356.931 249.621 356.931C249.621 356.931 249.621 361.497 249.621 363.638C249.621 365.309 249.621 370.345 249.621 370.345C249.621 370.345 244.947 370.345 242.914 370.345C239.208 370.345 236.207 367.341 236.207 363.638C236.207 359.935 239.208 356.931 242.914 356.931Z" fill="#252C4A"/>
<path d="M263.035 356.931H249.621V370.345H263.035V356.931Z" fill="#252C4A"/>
<path d="M303.276 356.931H289.862V370.345H303.276V356.931Z" fill="#252C4A"/>
<path d="M316.69 356.931H303.276V370.345H316.69V356.931Z" fill="#252C4A"/>
<path d="M330.103 356.931H316.69V370.345H330.103V356.931Z" fill="#252C4A"/>
<path d="M343.517 356.931H330.104V370.345H343.517V356.931Z" fill="#252C4A"/>
<path d="M356.931 356.931H343.517V370.345H356.931V356.931Z" fill="#252C4A"/>
<path d="M370.345 356.931H356.931V370.345H370.345V356.931Z" fill="#252C4A"/>
<path d="M377.052 370.345C375.488 370.345 370.345 370.345 370.345 370.345C370.345 370.345 370.345 365.779 370.345 363.638C370.345 361.966 370.345 356.931 370.345 356.931C370.345 356.931 375.02 356.931 377.052 356.931C380.756 356.931 383.759 359.934 383.759 363.638C383.759 367.342 380.756 370.345 377.052 370.345Z" fill="#252C4A"/>
<path d="M142.31 377.052C142.31 375.488 142.31 370.345 142.31 370.345C142.31 370.345 146.877 370.345 149.017 370.345C150.689 370.345 155.724 370.345 155.724 370.345C155.724 370.345 155.724 375.02 155.724 377.052C155.724 380.756 152.721 383.759 149.017 383.759C145.313 383.759 142.31 380.756 142.31 377.052Z" fill="#252C4A"/>
<path d="M209.379 383.759V370.345H195.966C195.966 377.753 201.971 383.759 209.379 383.759Z" fill="#252C4A"/>
<path d="M222.793 370.345H209.379V383.759H222.793V370.345Z" fill="#252C4A"/>
<path d="M229.5 383.759C227.937 383.759 222.793 383.759 222.793 383.759C222.793 383.759 222.793 379.192 222.793 377.052C222.793 375.38 222.793 370.345 222.793 370.345C222.793 370.345 227.468 370.345 229.5 370.345C233.204 370.345 236.207 373.348 236.207 377.052C236.207 380.756 233.204 383.759 229.5 383.759Z" fill="#252C4A"/>
<path d="M263.035 370.345H249.621V383.759H263.035V370.345Z" fill="#252C4A"/>
<path d="M276.448 370.345H263.035V383.759H276.448V370.345Z" fill="#252C4A"/>
<path d="M289.862 370.345H276.448V383.759H289.862V370.345Z" fill="#252C4A"/>
<path d="M303.276 370.345H289.862V383.759H303.276V370.345Z" fill="#252C4A"/>
<path d="M316.69 370.345H303.276V383.759H316.69V370.345Z" fill="#252C4A"/>
<path d="M330.103 370.345H316.69V383.759H330.103V370.345Z" fill="#252C4A"/>
<path d="M356.931 370.345H343.517V383.759H356.931V370.345Z" fill="#252C4A"/>
<path d="M410.586 377.052C410.586 378.615 410.586 383.759 410.586 383.759C410.586 383.759 406.02 383.759 403.879 383.758C402.207 383.759 397.172 383.758 397.172 383.758C397.172 383.758 397.172 379.084 397.172 377.052C397.173 373.348 400.175 370.345 403.879 370.345C407.583 370.345 410.586 373.348 410.586 377.052Z" fill="#252C4A"/>
<path d="M175.845 383.759C179.549 383.759 182.552 386.761 182.552 390.466C182.552 394.17 179.549 397.172 175.845 397.172C172.141 397.172 169.138 394.17 169.138 390.466C169.138 386.761 172.141 383.759 175.845 383.759Z" fill="#252C4A"/>
<path d="M222.793 383.759H209.379V397.172H222.793V383.759Z" fill="#252C4A"/>
<path d="M249.621 390.466C249.621 388.902 249.621 383.759 249.621 383.759C249.621 383.759 254.187 383.759 256.328 383.759C258 383.759 263.035 383.759 263.035 383.759C263.035 383.759 263.035 388.434 263.035 390.466C263.035 394.169 260.032 397.172 256.328 397.172C252.624 397.172 249.621 394.169 249.621 390.466Z" fill="#252C4A"/>
<path d="M330.103 383.759H316.69V397.172H330.103V383.759Z" fill="#252C4A"/>
<path d="M356.931 383.759H343.517V397.172H356.931V383.759Z" fill="#252C4A"/>
<path d="M363.638 397.172C362.075 397.172 356.931 397.172 356.931 397.172C356.931 397.172 356.931 392.606 356.931 390.466C356.931 388.794 356.931 383.759 356.931 383.759C356.931 383.759 361.606 383.759 363.638 383.759C367.342 383.759 370.345 386.761 370.345 390.466C370.345 394.169 367.342 397.172 363.638 397.172Z" fill="#252C4A"/>
<path d="M383.759 397.172H397.172V383.759C389.764 383.759 383.759 389.764 383.759 397.172Z" fill="#252C4A"/>
<path d="M410.586 383.759H397.172V397.172H410.586V383.759Z" fill="#252C4A"/>
<path d="M410.586 383.759V397.172H424C424 389.764 417.994 383.759 410.586 383.759Z" fill="#252C4A"/>
<path d="M195.966 403.879C195.966 405.443 195.966 410.586 195.966 410.586C195.966 410.586 191.4 410.586 189.259 410.586C187.587 410.586 182.552 410.586 182.552 410.586C182.552 410.586 182.552 405.911 182.552 403.879C182.552 400.175 185.555 397.172 189.258 397.172C192.963 397.172 195.966 400.175 195.966 403.879Z" fill="#252C4A"/>
<path d="M209.379 403.879C209.379 402.316 209.379 397.172 209.379 397.172C209.379 397.172 213.945 397.172 216.086 397.172C217.758 397.172 222.793 397.172 222.793 397.172C222.793 397.172 222.793 401.847 222.793 403.879C222.793 407.583 219.79 410.586 216.086 410.586C212.382 410.586 209.379 407.583 209.379 403.879Z" fill="#252C4A"/>
<path d="M242.914 397.172C246.618 397.172 249.621 400.175 249.621 403.879C249.621 407.584 246.618 410.586 242.914 410.586C239.21 410.586 236.207 407.584 236.207 403.879C236.207 400.175 239.21 397.172 242.914 397.172Z" fill="#252C4A"/>
<path d="M316.69 403.879C316.69 402.316 316.69 397.172 316.69 397.172C316.69 397.172 321.256 397.172 323.397 397.172C325.069 397.172 330.103 397.172 330.103 397.172C330.103 397.172 330.103 401.847 330.103 403.879C330.103 407.583 327.101 410.586 323.397 410.586C319.692 410.586 316.69 407.583 316.69 403.879Z" fill="#252C4A"/>
<path d="M343.517 403.879C343.517 402.316 343.517 397.172 343.517 397.172C343.517 397.172 348.083 397.172 350.224 397.172C351.896 397.172 356.931 397.172 356.931 397.172C356.931 397.172 356.931 401.847 356.931 403.879C356.931 407.583 353.928 410.586 350.224 410.586C346.52 410.586 343.517 407.583 343.517 403.879Z" fill="#252C4A"/>
<path d="M370.345 410.586H383.759V397.172C376.35 397.173 370.345 403.178 370.345 410.586Z" fill="#252C4A"/>
<path d="M397.172 397.172H383.759V410.586C391.167 410.586 397.172 404.581 397.172 397.172Z" fill="#252C4A"/>
<path d="M410.586 403.879C410.586 402.316 410.586 397.172 410.586 397.172C410.586 397.172 415.152 397.172 417.293 397.172C418.965 397.172 424 397.172 424 397.172C424 397.172 424 401.847 424 403.879C424 407.583 420.997 410.586 417.293 410.586C413.589 410.586 410.586 407.583 410.586 403.879Z" fill="#252C4A"/>
<path d="M149.017 410.586C152.722 410.586 155.724 413.589 155.724 417.293C155.724 420.997 152.722 424 149.017 424C145.313 424 142.31 420.997 142.31 417.293C142.31 413.589 145.313 410.586 149.017 410.586Z" fill="#252C4A"/>
<path d="M195.966 424V410.586H182.552C182.552 417.994 188.557 424 195.966 424Z" fill="#252C4A"/>
<path d="M202.672 424C201.109 424 195.966 424 195.966 424C195.966 424 195.966 419.434 195.966 417.293C195.966 415.621 195.966 410.586 195.966 410.586C195.966 410.586 200.641 410.586 202.672 410.586C206.376 410.586 209.379 413.589 209.379 417.293C209.379 420.997 206.376 424 202.672 424Z" fill="#252C4A"/>
<path d="M269.741 410.586C271.305 410.586 276.448 410.586 276.448 410.586C276.448 410.586 276.448 415.152 276.448 417.293C276.448 418.965 276.448 424 276.448 424C276.448 424 271.774 424 269.741 424C266.036 424 263.035 420.996 263.035 417.293C263.035 413.59 266.036 410.586 269.741 410.586Z" fill="#252C4A"/>
<path d="M289.862 410.586H276.448V424H289.862V410.586Z" fill="#252C4A"/>
<path d="M303.276 410.586H289.862V424H303.276V410.586Z" fill="#252C4A"/>
<path d="M309.983 424C308.42 424 303.276 424 303.276 424C303.276 424 303.276 419.434 303.276 417.293C303.276 415.621 303.276 410.586 303.276 410.586C303.276 410.586 307.951 410.586 309.983 410.586C313.687 410.586 316.69 413.589 316.69 417.293C316.69 420.997 313.687 424 309.983 424Z" fill="#252C4A"/>
<path d="M336.81 410.586C340.515 410.586 343.517 413.589 343.517 417.293C343.517 420.997 340.515 424 336.81 424C333.106 424 330.104 420.997 330.104 417.293C330.104 413.589 333.106 410.586 336.81 410.586Z" fill="#252C4A"/>
<path d="M363.638 410.586C365.201 410.586 370.345 410.586 370.345 410.586C370.345 410.586 370.345 415.152 370.345 417.293C370.345 418.965 370.345 424 370.345 424C370.345 424 365.671 424 363.638 424C359.933 424 356.931 420.996 356.931 417.293C356.931 413.59 359.933 410.586 363.638 410.586Z" fill="#252C4A"/>
<path d="M383.759 410.586H370.345V424C377.753 424 383.759 417.994 383.759 410.586Z" fill="#252C4A"/>
<path d="M96.8393 35.0077H67.0572C52.5427 35.0077 40.246 44.5973 36.3146 57.7044C35.908 59.0602 35.5906 60.4537 35.37 61.8781C35.1268 63.4499 35 65.0593 35 66.6978V97.1869C35 114.67 49.3849 128.886 67.0572 128.886L81.9483 128.889L96.8393 128.885C114.511 128.885 128.897 114.669 128.897 97.186V66.6978C128.897 49.2236 114.512 35.0077 96.8393 35.0077ZM114.812 97.1869C114.812 106.9 106.75 114.802 96.8356 114.802L81.9483 114.805L67.061 114.801C57.1464 114.801 49.0845 106.899 49.0845 97.1869V66.6978C49.0845 63.664 49.8713 60.8076 51.2563 58.3119C52.5896 55.9109 54.476 53.8462 56.7474 52.2828C59.6676 50.2725 63.2234 49.0922 67.0563 49.0922H96.8393C106.75 49.0922 114.812 56.9898 114.812 66.6978V97.1869Z" fill="#252C4A"/>
<path d="M391.943 35.0076H362.161C347.646 35.0076 335.35 44.5972 331.418 57.7042C331.011 59.0601 330.694 60.4535 330.473 61.8779C330.23 63.4498 330.104 65.0592 330.104 66.6976V97.1868C330.104 114.669 344.488 128.886 362.161 128.886L377.052 128.889L391.943 128.885C409.614 128.885 424 114.668 424 97.1858V66.6976C424 49.2235 409.615 35.0076 391.943 35.0076ZM409.916 97.1868C409.916 106.899 401.854 114.802 391.939 114.802L377.052 114.805L362.164 114.801C352.25 114.801 344.188 106.899 344.188 97.1868V66.6976C344.188 63.6639 344.975 60.8075 346.36 58.3118C347.693 55.9108 349.58 53.846 351.851 52.2827C354.771 50.2723 358.327 49.092 362.16 49.092H391.943C401.854 49.092 409.916 56.9897 409.916 66.6976V97.1868Z" fill="#252C4A"/>
<path d="M96.8394 330.111H67.0573C52.5428 330.111 40.2461 339.701 36.3147 352.808C35.9081 354.164 35.5907 355.557 35.3701 356.981C35.1269 358.553 35.0001 360.163 35.0001 361.801V392.29C35.0001 409.773 49.3851 423.99 67.0573 423.99L81.9484 423.993L96.8394 423.989C114.511 423.989 128.897 409.772 128.897 392.289V361.801C128.897 344.327 114.512 330.111 96.8394 330.111ZM114.812 392.29C114.812 402.003 106.75 409.905 96.8357 409.905L81.9484 409.908L67.0611 409.904C57.1466 409.904 49.0846 402.002 49.0846 392.29V361.801C49.0846 358.767 49.8715 355.911 51.2564 353.415C52.5898 351.014 54.4761 348.949 56.7475 347.386C59.6677 345.376 63.2235 344.196 67.0564 344.196H96.8394C106.75 344.196 114.812 352.093 114.812 361.801V392.29Z" fill="#252C4A"/>
<path d="M72.8341 102.069C66.7616 102.069 61.822 97.2273 61.822 91.2812V72.61C61.822 70.7525 62.3049 69.0044 63.1504 67.4748C63.9669 66.0028 65.1226 64.7376 66.5146 63.7831C68.3025 62.5525 70.482 61.8278 72.828 61.8278H91.0682C97.135 61.8278 102.075 66.664 102.075 72.6096V91.2808C102.075 97.2265 97.1354 102.069 91.0682 102.069H81.9483L72.8341 102.069Z" fill="#252C4A"/>
<path d="M367.938 102.069C361.865 102.069 356.926 97.2273 356.926 91.2812V72.61C356.926 70.7525 357.408 69.0044 358.254 67.4748C359.07 66.0028 360.226 64.7376 361.618 63.7831C363.406 62.5525 365.585 61.8278 367.932 61.8278H386.172C392.239 61.8278 397.178 66.664 397.178 72.6096V91.2808C397.178 97.2265 392.239 102.069 386.172 102.069H377.052L367.938 102.069Z" fill="#252C4A"/>
<path d="M72.8341 397.172C66.7616 397.172 61.822 392.331 61.822 386.384V367.713C61.822 365.856 62.3049 364.108 63.1504 362.578C63.9669 361.106 65.1226 359.841 66.5146 358.886C68.3025 357.656 70.482 356.931 72.828 356.931H91.0682C97.135 356.931 102.075 361.767 102.075 367.713V386.384C102.075 392.33 97.1354 397.172 91.0682 397.172H81.9483L72.8341 397.172Z" fill="#252C4A"/>
</svg>
