<svg width="128" height="128" viewBox="0 0 128 128" fill="none" xmlns="http://www.w3.org/2000/svg">
<path opacity="0.35" d="M32 90.6667V26.6667C32 17.8293 39.1627 10.6667 48 10.6667H90.6667C99.504 10.6667 106.667 17.8293 106.667 26.6667V90.6667C106.667 99.504 99.504 106.667 90.6667 106.667H48C39.1627 106.667 32 99.504 32 90.6667Z" fill="white" fill-opacity="0.3"/>
<path d="M48 106.667C39.1627 106.667 32 99.504 32 90.6667V26.6667C26.1067 26.6667 21.3333 31.44 21.3333 37.3333V101.333C21.3333 110.171 28.496 117.333 37.3333 117.333H80C85.8933 117.333 90.6667 112.56 90.6667 106.667H48Z" fill="white"/>
<path d="M68.7094 69.1893H68.6773C65.104 69.1893 62.3467 65.9627 62.96 62.4427C64.8267 51.7067 73.184 51.3333 73.184 44.6667C73.184 42.816 72.864 38.672 68.4054 38.672C65.9947 38.672 64.576 40.2133 63.7494 41.856C62.6347 44.08 60.064 45.1733 57.616 44.7413C53.904 44.08 51.6267 40.1013 53.2 36.6773C55.4507 31.7867 60.0587 26.6667 69.184 26.6667C83.9893 26.6667 85.9734 38.2613 85.9734 43.712C85.9734 56.5973 76.3787 57.0773 74.3893 64.5013C73.6693 67.1787 71.4827 69.1893 68.7094 69.1893ZM76.4 82.8427C76.4 85.04 75.7227 86.896 74.3627 88.4053C72.9973 89.9093 71.2107 90.6667 69.0133 90.6667C66.8053 90.6667 65.024 89.9093 63.664 88.4053C62.304 86.896 61.616 85.04 61.616 82.8427C61.616 80.6933 62.304 78.8427 63.664 77.2693C65.024 75.7067 66.8053 74.928 69.0133 74.928C71.2107 74.928 72.9973 75.7067 74.3627 77.2693C75.7227 78.8427 76.4 80.6987 76.4 82.8427Z" fill="white"/>
</svg>
