<svg width="30" height="30" viewBox="0 0 30 30" fill="none" xmlns="http://www.w3.org/2000/svg">
<path opacity="0.35" d="M22.5 3.75H7.5C5.42875 3.75 3.75 5.42875 3.75 7.5V22.5C3.75 24.5712 5.42875 26.25 7.5 26.25H22.5C24.5712 26.25 26.25 24.5712 26.25 22.5V7.5C26.25 5.42875 24.5712 3.75 22.5 3.75Z" fill="#FF1E60"/>
<path d="M18.515 9.73125L9.73128 18.515C9.25128 18.995 9.25128 19.775 9.73128 20.255L9.74503 20.2688C10.225 20.7488 11.005 20.7488 11.485 20.2688L20.2688 11.485C20.7488 11.005 20.7488 10.225 20.2688 9.745L20.255 9.73125C19.775 9.25125 18.995 9.25125 18.515 9.73125Z" fill="#FF1E60"/>
<path d="M9.73128 11.485L18.515 20.2688C18.995 20.7488 19.775 20.7488 20.255 20.2688L20.2688 20.255C20.7488 19.775 20.7488 18.995 20.2688 18.515L11.485 9.73125C11.005 9.25125 10.225 9.25125 9.74503 9.73125L9.73128 9.745C9.25128 10.225 9.25128 11.005 9.73128 11.485Z" fill="#FF1E60"/>
</svg>
